<svg xmlns="http://www.w3.org/2000/svg" xmlns:xlink="http://www.w3.org/1999/xlink" width="571.771" height="288" viewBox="0 0 571.771 288"><defs><filter id="a" x="63.771" y="0" width="408" height="288" filterUnits="userSpaceOnUse"><feOffset dy="3" input="SourceAlpha"/><feGaussianBlur stdDeviation="3" result="b"/><feFlood flood-opacity="0.502"/><feComposite operator="in" in2="b"/><feComposite in="SourceGraphic"/></filter><filter id="c" x="231.26" y="57.031" width="324.227" height="131.278" filterUnits="userSpaceOnUse"><feOffset dy="3" input="SourceAlpha"/><feGaussianBlur stdDeviation="3" result="d"/><feFlood flood-opacity="0.502"/><feComposite operator="in" in2="d"/><feComposite in="SourceGraphic"/></filter></defs><g transform="translate(-129.229 -1798)"><g transform="matrix(1, 0, 0, 1, 129.23, 1798)" filter="url(#a)"><rect width="390" height="270" transform="translate(72.77 6)" fill="#efefef" opacity="0.999"/></g><g transform="translate(129.229 1804.055)"><g transform="matrix(1, 0, 0, 1, 0, -6.06)" filter="url(#c)"><path d="M32.806,113.278c-4.024,0-7.287-2.006-7.287-4.48V84a24.39,24.39,0,0,1-7.5.709C9.789,84.154,0,78.775,0,78.775s14.174,1.169,22.4-1.806a18.493,18.493,0,0,0,3.117-1.463V4.48c0-2.475,3.263-4.48,7.287-4.48H298.941c4.024,0,7.286,2.006,7.286,4.48V108.8c0,2.475-3.262,4.48-7.286,4.48Z" transform="translate(240.26 63.03)" fill="#fff"/></g><text transform="translate(281.771 82.945)" font-size="27" font-family="HelveticaNeue, Helvetica Neue"><tspan x="0" y="26">What cookies know </tspan><tspan x="0" y="59">about me?</tspan></text><path d="M139.071,693.575c2.084-3.209,5.341.319,11.2-3.79s7.3-10.772,17.293-18.28,18.54-10.787,26.958-8.29c3.008,1.18,6.426,7.8,11.115,10.491,7.826,4.493,17.874,4.866,17.874,4.866s50,3.84,70.249,0,12.272-11.517,22.965-14.852,29.891,11.608,32.358,17.7,13.6,4.759,16.24,7.12-2.3,6.417-6.061,8.385c-1.26.659,2.184.427,6.554,2.513a33.967,33.967,0,0,1,7.811,6.035c4.054,3.517,5.611,10.484,5.513,15.925s-5.9,5.84-5.9,5.84,3.555,4.906,4.624,9.261-.527,6.815,0,9.1-.246,3.52.236,6.046c.684,3.419,3.223,4.095,2.008,7s-4.021,4.813-7.613,5.613-6.754-2.414-6.754-2.414a39.877,39.877,0,0,1,1.381,9.328,53,53,0,0,1-.685,12.57c-2.194,10.188-3.045,13.3-8.776,19.73-2.063,2.315-4.32,4.806-6.793,5.988-3.433,1.651-7.355,0-7.355,0s.308,7.045-7.2,13.992c-2.861,2.647-6.605,6.341-10.794,8.782-5.92,3.452-9.408,2.954-13.924,6.966s-1.974,10.523-4.252,10.492-8.114-6.011-8.114-6.011a34.315,34.315,0,0,1-12.73,9.661c-7.733,3.158-11.417,2.952-18.2,2.972s-7.958-.034-9.4-2.535,3.632-7.471,3.632-7.471a32.987,32.987,0,0,0-4.64,2.486c-2.821,1.758-2.746,3.832-6.645,4.548-5.432,1-11.4-.689-16.928-.445-4.4.195-3.326,2.465-5.442,1.307s-4.19-3.484-3.021-5.937a24.845,24.845,0,0,1-17.026,0c-8.357-3.19-9.288-4.534-14.948-9.028a27.506,27.506,0,0,1-7.691-8.948s-.692,3.634-4.212,2.666-3.528-1.073-9.871-6.537a73.913,73.913,0,0,1-15.382-20.51,34.157,34.157,0,0,1-2.96-13.594s-3.43,2.137-6.3.964-4.562-1.265-5.95-5.329c.139-1.512,2.537-1.657,2.509-4.993s-3.875-8.637-3.875-8.637-3.143-4.28-6.694-9.724-3.3-13.3-3.3-13.3a38.574,38.574,0,0,1,.612-8.62,14.812,14.812,0,0,1,2.748-5.833s-4.266-.292-5.381-3.273.922-8.654.922-8.654a43.416,43.416,0,0,1,6.08-13.032,38.562,38.562,0,0,1,10.44-9.123,20.315,20.315,0,0,1-6.176-3.948C138.027,697.43,137.2,696.451,139.071,693.575Z" transform="translate(-127.795 -611.656)" fill="#ee4035" opacity="0.995"/><path d="M177.886,655.319c-.05-2.531,1.244-16.294,10.482-24.811s14.928-8.775,19.491-9.277,15.882.531,22.541,5.367,10.6,12.75,11.073,14a51.44,51.44,0,0,1,1.141,5.877L245.5,640.6s4.24-9.6,12.706-14,20.027-2.848,21.559-2.592,10.9,1.766,17.685,9.4,8.461,20.1,8.461,20.1,1.139,9.533-3.92,18.008a45.228,45.228,0,0,1-15.283,15.638c-5.729,3.581-51.192,4.143-82.458-.93-12.9-2.094-20.7-12.561-21.976-14.708A31.581,31.581,0,0,1,177.886,655.319Z" transform="translate(-114.784 -621.116)" fill="#fff" stroke="#6f6f6f" stroke-width="2"/><circle cx="13" cy="13" r="13" transform="translate(80.771 19.945)" fill="#0a0a0a"/><ellipse cx="14" cy="12.5" rx="14" ry="12.5" transform="translate(143.771 24.945)" fill="#0a0a0a"/><path d="M141.192,694.483c2.238-1.72,6.234,1.827,14.671-3.641s10.1-12.06,19.078-18.233,9.082-6,12.382-6.593,11.02.881,9.759,2.086-5.044.259-10.344,2.871-11.123,6.066-10.291,7.317,8.32-2.314,13.62-2.314,7.58,2.314,7.58,2.314-8.277.567-12.449,1.443-4.24,2.064-4.24,2.064,14.836-1.086,14.5,0-8.874.928-15.835,4.345a42.58,42.58,0,0,0-12.009,9.323,81.959,81.959,0,0,0,9.687-.98,35.773,35.773,0,0,0,7.284-2.119s-.308,2.364-4.2,4.647-6.107.275-11.378,4.484-10.559,9.266-9.706,12.354,13.118,0,13.118,0a55.858,55.858,0,0,0-12.212,5.885c-5.086,3.533-5.274,4.183-8.131,8.248a19.124,19.124,0,0,0-3.3,8.013,12.62,12.62,0,0,1-.587-8.013c1.141-4.474,3.232-5.007,5.15-9.881s6.109-10.678,2.522-9.616-7.09,3.2-12.276,8.753-8.531,13.709-8.853,13.879-3.834,1.324-1.717-4.231a68.766,68.766,0,0,1,10.57-18.4,50.529,50.529,0,0,1,12.276-11.474s-.285-1.725-2.522-1.547-3.391,2.5-6.428,2.259S138.954,696.2,141.192,694.483Z" transform="translate(-126.613 -610.748)" fill="#f4856a"/><path d="M202.265,685.306c-2.47,8.26-2.262,31.43,5.354,38.213,3.138,2.795,7.34,7.031,12.816,9.731,7.035,3.472,16.121,3.77,22.317,2.679,5.68-1,14.109-4.153,20.239-10.488,4.754-4.911,7.36-12,7.85-13.4A37.187,37.187,0,0,0,273,700.1c.137-6.91-1.355-16.067-2.864-19.005-2.719-5.294-15.147-24.239-33.736-24.174S204.735,677.046,202.265,685.306Z" transform="translate(-108.816 -613.076)" fill="#f79727" stroke="#de8b2f" stroke-width="0.5"/><path d="M272.234,672.023s1.583-7.683,8.277-6.171,7.4,5.8,18.5,12.222c4.55,2.633,7.4,8.4,10.67,10.049,3.874,1.958,10.857,2.724,10.857,2.724s-8.467-1.353-5.652,3.661,10.961,8.529,15.851,15.259,3.708,11.661,3.708,11.661-3.528-.432-7.636-5.525-6.971-9.545-11.08-13.264-5.355-1.612-5.355-1.612,6.559,8.677,9.1,12.939,1.064,4.107,1.064,4.107,7.65,7.707,10.2,13.162,0,8.661,0,8.661a22.413,22.413,0,0,0-5.049-9.7c-4.208-4.89-7.054-6.551-11.783-9.86s-7.134-3.378-7.134-3.378h10.291s-6.038-7.9-12.756-12.5a40.406,40.406,0,0,0-14.114-5.9l12.216-1.707L291,692.3l10.7-.748s-5.22-3.087-9.546-5.93-3.5-3.791-7.758-5.444a23.153,23.153,0,0,0-9.256-1.169L291,678.074s-3.1-4.539-7.621-6.052-10.466,0-10.466,0Z" transform="translate(-90.276 -610.807)" fill="#f4856a"/><path d="M139.993,727.481c2.113,2.687,4.228,18.6,4.228,18.6s4.151,10.334,7.541,10.334,6.019-10.334,6.019-10.334-2.637,9.163,0,16.358,5.785,5.387,10.547,12.422a110.738,110.738,0,0,1,8.5,15.72s-1.281-10.077,0-11.135c.787-.65,2.539,2.1,3.962,4.658.59,1.057,3.686,12.211,9.394,19.061s14.6,10.583,14.6,10.583h5.63l-3.44-6.813a160.783,160.783,0,0,0,18.239,10.084,45.582,45.582,0,0,0,13.725,3.87s-14.506-8.566-8.9-9.041,16.4,7.792,31.315,7.14,16.766-3.628,28.357-9.751a58.107,58.107,0,0,0,18.006-14.743s-8.617,12.575-6.768,14.743,5.9,1.679,14.165-6.072S327.989,789.916,334,778.228s3.055-20.975,5.169-21.818-.018,19.636,3.288,18.446,6.966-14.129,9.937-23.205.573-13.1,1.946-13.1,8.912,9.184,6.1,17.857-9.289,21.98-13.785,29.933-4.2,1.878-4.2,1.878V784a101.071,101.071,0,0,1-13.026,19.158c-7.486,8.253-10.342,8.73-16.916,13.854a81.122,81.122,0,0,1-9.38,6.641s5.313-.713-4.5,0-23.711,8.512-33.031,10.4-4.25-2.85-4.25-2.85,2.8-3-2.144-2.635-17.645,4.079-17.645,4.079-8.576,1.379-14.114,0a13.711,13.711,0,0,1-8.04-5.517s-5.126,1.9-12.432-1.452-9.624-6.306-16.793-11.936-8.913-9.455-11.884-10.583,0,6.072,0,6.072a45.424,45.424,0,0,1-12.346-12.463c-5.919-8.594-11.329-21.914-11.329-21.914s-.707-6.987-2.865-6.987S146,774.856,146,774.856s1.936-4.776,0-12.422-5.188-11.387-7.745-18.163S137.88,724.794,139.993,727.481Z" transform="translate(-125.379 -594.843)" fill="#e11735"/><path d="M188.412,743.17c1.591-3.772,2.638-8.452,9.9-8.821s8.056-2.45,12.236-2.772,14.436-2.66,25.461-1.715,15.533,3.418,23.019,5.255,13.319,31.076,7.154,32.863,2.314-20.787-4.553-21.98.049-2-6.12-2.825,3.6-3.749-4.6-4.709-9.509-.69-19.022-.69-10.83-1.129-18.435-.507c-4.319.354-6.61,2-7.185.878-.051-.173-3.568,6.044-11.1,6.044S186.821,746.942,188.412,743.17Z" transform="translate(-101.141 -597.708)" fill="#af0736"/><path d="M155.236,726.154c-1.358-2.77.683,10.652,4.24,14.157s6.1,4.1,11.271,10.1a90.091,90.091,0,0,1,9.417,13.911s4.08,4.842,6.008,5.651c.582.244,1.979.26.741-3.123-2.426-6.635-10.436-21.583-16.165-28.262-1.453-1.694-1.3-4-2.878-5.411C163.619,731.708,156.353,728.434,155.236,726.154Z" transform="translate(-99.072 -559.015)" fill="#e11735"/><path d="M266.469,769.336c1.045,1.093,16.049-4.665,24.119-14.558s1.815-26.9,1.91-27.232c1.074-3.382-10.28-9.433-10.28-9.433s5.937,6.809,6.972,14.555c.332,2.585,2.407,7.944.884,11.765C280.963,756.368,265.424,768.243,266.469,769.336Z" transform="translate(-123.137 -580.237)" fill="#e11735"/><path d="M196.21,779.306c10.4,9.15,3.9,15.371,24.02,21.6s17.643,2.847,33.687-2.5c5.391-1.8,10.283-6.4,13.121-9.266a23.373,23.373,0,0,0,6.577-11.1c1.048-3.775-.7-20.955-5.154-19.134s-3.723,14.338-12.644,26.417c-2.837,3.847-3.05,8.074-8.877,9.438a49.03,49.03,0,0,1-16.231,1.321c-9.49-.587-7.578-5.445-19.428-10.759-2.367-1.061-.773-6.59-3.036-8.143-11.99-8.215-3.212-18.715-8.114-21.565C194.457,752.319,185.813,770.156,196.21,779.306Z" transform="translate(-107.461 -610.68)" fill="#f4856a"/><path d="M204.055,674.4a42.669,42.669,0,0,0-5.371,13.319c-1.019,4.651-.134,13.195,2.279,18.993,6.019,14.461,11.572,19.615,25.814,27.77s30-3.513,30-3.513,13.525-9.281,17.618-22.6c1.96-6.381,3.2-16.139,1.956-22.393a27.591,27.591,0,0,0-4.5-10.337s.217,1.375,1.005,5.031a65.379,65.379,0,0,1,.72,13.5,49.26,49.26,0,0,1-6.956,21.447c-2.448,3.841-13.977,13.462-25.8,14.125s-22.851-4.865-24.478-5.832-11.262-8.726-13.163-16.567-1.89-11.7-1.671-19.933S204.055,674.4,204.055,674.4Z" transform="translate(-109.489 -606.017)" fill="#e01634"/><path d="M204.968,688.3c.907,7.025,15.464,20.618,21.121,22.718s19.749-1.81,30.267-8.176,9.294-19.319,11.843-18.653.087,17.468-1.648,21.318-13.416,16.237-19.048,18.615-18.234,2.64-24.809,0-12.989-9.8-15.121-13.1a36.262,36.262,0,0,1-5.185-13.666C201.355,691.42,204.061,681.275,204.968,688.3Z" transform="translate(-108.479 -605.999)" fill="#f58e1d"/><path d="M212.149,673.9c1.539-.241,10.595-6.37,17.637-7.5s19.227,4.144,20.583,3.169-6.892-6.982-10.9-8.943-10.676-1.661-12.683-.974-9.7,4.33-11.465,6.749S210.61,674.142,212.149,673.9Z" transform="translate(-105.995 -612.502)" fill="#e6ae64"/><path d="M175.505,734.519c4.915-2.535,13.2-4.258,13.908-4.372,1.5-.241,9.647,0,12.193,0,5.2,0,6.873-.64,8.921,0s6.219.2,10.179.858,5.925.961,10.717,1.527c4.67,1.919,7.892,6.787,7.892,6.787s5.258,3.932.742,11.9-5.112,12.766-13.869,19.779-10.212,9.08-21.16,8.272-13.87-3.913-22.24-11.32c-4.243-3.755-4.245-5.871-6.222-8.517-1.156-2.3-3.192-5.478-5-9.81C169.507,744.665,170.59,737.054,175.505,734.519Z" transform="translate(-77.734 -592.022)"/><ellipse cx="4.5" cy="3" rx="4.5" ry="3" transform="translate(155.771 36.945)" fill="#fffcfc"/><ellipse cx="4" cy="4.5" rx="4" ry="4.5" transform="translate(95.771 31.945)" fill="#fffcfc"/></g></g></svg>