<svg xmlns="http://www.w3.org/2000/svg" xmlns:xlink="http://www.w3.org/1999/xlink" width="433.501" height="407.023" viewBox="0 0 433.501 407.023"><defs><linearGradient id="a" x1="0.5" y1="1" x2="0.5" gradientUnits="objectBoundingBox"><stop offset="0" stop-color="gray" stop-opacity="0.251"/><stop offset="0.54" stop-color="gray" stop-opacity="0.122"/><stop offset="1" stop-color="gray" stop-opacity="0.102"/></linearGradient><linearGradient id="b" y2="0" xlink:href="#a"/><filter id="e" x="113.165" y="171.092" width="90.239" height="91.289" filterUnits="userSpaceOnUse"><feOffset dy="3" input="SourceAlpha"/><feGaussianBlur stdDeviation="3" result="f"/><feFlood flood-opacity="0.902"/><feComposite operator="in" in2="f"/><feComposite in="SourceGraphic"/></filter><filter id="g" x="197.533" y="13.896" width="90.239" height="91.289" filterUnits="userSpaceOnUse"><feOffset dy="3" input="SourceAlpha"/><feGaussianBlur stdDeviation="3" result="h"/><feFlood flood-opacity="0.902"/><feComposite operator="in" in2="h"/><feComposite in="SourceGraphic"/></filter><filter id="i" x="38.501" y="279.023" width="395" height="128" filterUnits="userSpaceOnUse"><feOffset dy="3" input="SourceAlpha"/><feGaussianBlur stdDeviation="3" result="j"/><feFlood flood-opacity="0.502"/><feComposite operator="in" in2="j"/><feComposite in="SourceGraphic"/></filter></defs><g transform="translate(-122.499 -657.977)"><g transform="translate(123 815.477)" style="isolation:isolate"><rect width="4.71" height="22.329" transform="translate(151.226 3.57)" fill="#64ffda" stroke="#000" stroke-width="1"/><g transform="translate(160.524 3.57)" opacity="0.7"><rect width="4.71" height="22.329" transform="translate(0 0)" fill="#64ffda" stroke="#000" stroke-width="1"/></g><g transform="translate(169.826 3.57)" opacity="0.6"><rect width="4.71" height="22.329" transform="translate(0 0)" fill="#64ffda" stroke="#000" stroke-width="1"/></g><g transform="translate(10.115 0)" opacity="0.8"><path d="M368.317,530.448H200.07V423.033A4.833,4.833,0,0,1,204.9,418.2H363.482a4.833,4.833,0,0,1,4.833,4.833Z" transform="translate(-200.07 -418.2)" stroke="#000" stroke-width="1" fill="url(#a)"/></g><path d="M45.483,334.85H199.428a4.833,4.833,0,0,1,4.833,4.833v105.44H40.65V339.683a4.833,4.833,0,0,1,4.833-4.833Z" transform="translate(-28.216 -332.874)" fill="#fff" stroke="#000" stroke-width="1"/><rect width="153.076" height="100.402" transform="translate(17.701 8.39)" fill="#f5f5f5" stroke="#000" stroke-width="1"/><rect width="152.428" height="90.33" transform="translate(18.288 13.266)" fill="#e0e0e0" stroke="#000" stroke-width="1" opacity="0.8"/><rect width="152.428" height="4.799" transform="translate(18.288 8.467)" fill="#f5f5f5" stroke="#000" stroke-width="1"/><circle cx="1.162" cy="1.162" r="1.162" transform="translate(20.393 9.629)" fill="#ff5252" stroke="#000" stroke-width="1"/><circle cx="1.162" cy="1.162" r="1.162" transform="translate(23.592 9.629)" fill="#ff0" stroke="#000" stroke-width="1"/><circle cx="1.162" cy="1.162" r="1.162" transform="translate(26.794 9.629)" fill="#69f0ae" stroke="#000" stroke-width="1"/><g transform="translate(0 101.644)" opacity="0.8"><path d="M350.07,768.33c-9.366.71-170.2.425-175.827,0C166.874,764.779,167,751,167,751l73.761-.492.248,4.193h31.578l1.223-3.7h81.753S357.187,763.644,350.07,768.33Z" transform="translate(-167 -750.51)" stroke="#000" stroke-width="1" fill="url(#b)"/></g><path d="M356.884,755.75H276.727a2.447,2.447,0,0,1-1.869,4.071H244.271a2.447,2.447,0,0,1-1.869-4.071H170.63s-.122,11.966,7.154,15.049c5.552.37,164.424.612,173.674,0C358.49,766.728,356.884,755.75,356.884,755.75Z" transform="translate(-169.519 -652.503)" fill="#f5f5f5" stroke="#000" stroke-width="1"/><circle cx="0.988" cy="0.988" r="0.988" transform="translate(16.774 104.846)" fill="#e0e0e0" stroke="#000" stroke-width="1"/><circle cx="0.988" cy="0.988" r="0.988" transform="translate(19.735 104.846)" fill="#e0e0e0" stroke="#000" stroke-width="1"/><circle cx="0.988" cy="0.988" r="0.988" transform="translate(22.696 104.846)" fill="#e0e0e0" stroke="#000" stroke-width="1"/></g><g transform="translate(334.277 658.477)" style="isolation:isolate"><rect width="4.71" height="22.329" transform="translate(151.226 3.57)" fill="#64ffda" stroke="#000" stroke-width="1"/><g transform="translate(160.524 3.57)" opacity="0.7"><rect width="4.71" height="22.329" transform="translate(0 0)" fill="#64ffda" stroke="#000" stroke-width="1"/></g><g transform="translate(169.826 3.57)" opacity="0.6"><rect width="4.71" height="22.329" transform="translate(0 0)" fill="#64ffda" stroke="#000" stroke-width="1"/></g><g transform="translate(10.115 0)" opacity="0.8"><path d="M368.317,530.448H200.07V423.033A4.833,4.833,0,0,1,204.9,418.2H363.482a4.833,4.833,0,0,1,4.833,4.833Z" transform="translate(-200.07 -418.2)" stroke="#000" stroke-width="1" fill="url(#a)"/></g><path d="M45.483,334.85H199.428a4.833,4.833,0,0,1,4.833,4.833v105.44H40.65V339.683a4.833,4.833,0,0,1,4.833-4.833Z" transform="translate(-28.216 -332.874)" fill="#fff" stroke="#000" stroke-width="1"/><rect width="153.076" height="100.402" transform="translate(17.701 8.39)" fill="#f5f5f5" stroke="#000" stroke-width="1"/><rect width="152.428" height="90.33" transform="translate(18.288 13.266)" fill="#e0e0e0" stroke="#000" stroke-width="1" opacity="0.8"/><rect width="152.428" height="4.799" transform="translate(18.288 8.467)" fill="#f5f5f5" stroke="#000" stroke-width="1"/><circle cx="1.162" cy="1.162" r="1.162" transform="translate(20.393 9.629)" fill="#ff5252" stroke="#000" stroke-width="1"/><circle cx="1.162" cy="1.162" r="1.162" transform="translate(23.592 9.629)" fill="#ff0" stroke="#000" stroke-width="1"/><circle cx="1.162" cy="1.162" r="1.162" transform="translate(26.794 9.629)" fill="#69f0ae" stroke="#000" stroke-width="1"/><g transform="translate(0 101.644)" opacity="0.8"><path d="M350.07,768.33c-9.366.71-170.2.425-175.827,0C166.874,764.779,167,751,167,751l73.761-.492.248,4.193h31.578l1.223-3.7h81.753S357.187,763.644,350.07,768.33Z" transform="translate(-167 -750.51)" stroke="#000" stroke-width="1" fill="url(#b)"/></g><path d="M356.884,755.75H276.727a2.447,2.447,0,0,1-1.869,4.071H244.271a2.447,2.447,0,0,1-1.869-4.071H170.63s-.122,11.966,7.154,15.049c5.552.37,164.424.612,173.674,0C358.49,766.728,356.884,755.75,356.884,755.75Z" transform="translate(-169.519 -652.503)" fill="#f5f5f5" stroke="#000" stroke-width="1"/><circle cx="0.988" cy="0.988" r="0.988" transform="translate(16.774 104.846)" fill="#e0e0e0" stroke="#000" stroke-width="1"/><circle cx="0.988" cy="0.988" r="0.988" transform="translate(19.735 104.846)" fill="#e0e0e0" stroke="#000" stroke-width="1"/><circle cx="0.988" cy="0.988" r="0.988" transform="translate(22.696 104.846)" fill="#e0e0e0" stroke="#000" stroke-width="1"/></g><g transform="translate(312 711)" fill="#fff" stroke="#707070" stroke-width="1"><circle cx="7" cy="7" r="7" stroke="none"/><circle cx="7" cy="7" r="6.5" fill="none"/></g><g transform="translate(238 793)" fill="#fff" stroke="#707070" stroke-width="1"><circle cx="7" cy="7" r="7" stroke="none"/><circle cx="7" cy="7" r="6.5" fill="none"/></g><g transform="translate(242 768)" fill="#fff" stroke="#707070" stroke-width="1"><circle cx="7" cy="7" r="7" stroke="none"/><circle cx="7" cy="7" r="6.5" fill="none"/></g><g transform="translate(251 747)" fill="#fff" stroke="#707070" stroke-width="1"><circle cx="7" cy="7" r="7" stroke="none"/><circle cx="7" cy="7" r="6.5" fill="none"/></g><g transform="translate(268 728)" fill="#fff" stroke="#707070" stroke-width="1"><circle cx="7" cy="7" r="7" stroke="none"/><circle cx="7" cy="7" r="6.5" fill="none"/></g><g transform="translate(288 716)" fill="#fff" stroke="#707070" stroke-width="1"><circle cx="7" cy="7" r="7" stroke="none"/><circle cx="7" cy="7" r="6.5" fill="none"/></g><g transform="translate(334 711)" fill="#fff" stroke="#707070" stroke-width="1"><ellipse cx="6.5" cy="7" rx="6.5" ry="7" stroke="none"/><ellipse cx="6.5" cy="7" rx="6" ry="6.5" fill="none"/></g><g transform="translate(244.586 865.293) rotate(-39)"><g transform="matrix(0.78, 0.63, -0.63, 0.78, 35.59, -237.95)" filter="url(#e)"><path d="M3.712,0A3.717,3.717,0,0,0,0,3.712V51.577A3.717,3.717,0,0,0,3.712,55.29H44.469a3.716,3.716,0,0,0,3.712-3.712V5.64L41.1,0Z" transform="translate(122.17 207.41) rotate(-39)" fill="#fff"/></g><path d="M28.2,1.736H.868A.868.868,0,0,1,.868,0H28.2a.868.868,0,0,1,0,1.736Z" transform="translate(7.767 12.307)" fill="#ccc"/><path d="M31.779,1.736H.868A.868.868,0,0,1,.868,0H31.779a.868.868,0,0,1,0,1.736Z" transform="translate(7.767 15.237)" fill="#ccc"/><path d="M28.2,1.736H.868A.868.868,0,0,1,.868,0H28.2a.868.868,0,0,1,0,1.736Z" transform="translate(7.767 25.437)" fill="#6c63ff"/><path d="M31.779,1.736H.868A.868.868,0,0,1,.868,0H31.779a.868.868,0,0,1,0,1.736Z" transform="translate(7.767 28.367)" fill="#ccc"/><path d="M28.2,1.736H.868A.868.868,0,1,1,.868,0H28.2a.868.868,0,0,1,0,1.736Z" transform="translate(7.767 38.567)" fill="#ccc"/><path d="M31.779,1.736H.868A.868.868,0,0,1,.868,0H31.779a.868.868,0,1,1,0,1.736Z" transform="translate(7.767 41.497)" fill="#ccc"/><path d="M7.6,5.832H1.64A1.6,1.6,0,0,1,0,4.275V.1A.1.1,0,0,1,.058.01.107.107,0,0,1,.166.021L7.66,5.659a.094.094,0,0,1,.033.108.1.1,0,0,1-.1.065Z" transform="matrix(1, 0.017, -0.017, 1, 40.794, 0)" fill="#e6e6e6"/></g><g transform="matrix(0.777, 0.629, -0.629, 0.777, 363.906, 677.776)"><g transform="matrix(0.78, -0.63, 0.63, 0.78, -200.07, 136.54)" filter="url(#g)"><path d="M3.712,0A3.717,3.717,0,0,0,0,3.712V51.577A3.717,3.717,0,0,0,3.712,55.29H44.469a3.716,3.716,0,0,0,3.712-3.712V5.64L41.1,0Z" transform="matrix(0.78, 0.63, -0.63, 0.78, 241.33, 19.9)" fill="#fff"/></g><path d="M28.2,1.736H.868A.868.868,0,0,1,.868,0H28.2a.868.868,0,0,1,0,1.736Z" transform="translate(7.767 12.307)" fill="#ccc"/><path d="M31.779,1.736H.868A.868.868,0,0,1,.868,0H31.779a.868.868,0,0,1,0,1.736Z" transform="translate(7.767 15.237)" fill="#ccc"/><path d="M28.2,1.736H.868A.868.868,0,0,1,.868,0H28.2a.868.868,0,0,1,0,1.736Z" transform="translate(7.767 25.437)" fill="#6c63ff"/><path d="M31.779,1.736H.868A.868.868,0,0,1,.868,0H31.779a.868.868,0,0,1,0,1.736Z" transform="translate(7.767 28.367)" fill="#ccc"/><path d="M28.2,1.736H.868A.868.868,0,1,1,.868,0H28.2a.868.868,0,0,1,0,1.736Z" transform="translate(7.767 38.567)" fill="#ccc"/><path d="M31.779,1.736H.868A.868.868,0,0,1,.868,0H31.779a.868.868,0,1,1,0,1.736Z" transform="translate(7.767 41.497)" fill="#ccc"/><path d="M7.6,5.832H1.64A1.6,1.6,0,0,1,0,4.275V.1A.1.1,0,0,1,.058.01.107.107,0,0,1,.166.021L7.66,5.659a.094.094,0,0,1,.033.108.1.1,0,0,1-.1.065Z" transform="matrix(1, 0.017, -0.017, 1, 40.794, 0)" fill="#e6e6e6"/></g><g transform="translate(-142 510)"><g transform="matrix(1, 0, 0, 1, 264.5, 147.98)" filter="url(#i)"><g transform="translate(47.5 285.02)" fill="#fff" stroke="#000" stroke-width="1"><rect width="377" height="110" rx="8" stroke="none"/><rect x="0.5" y="0.5" width="376" height="109" rx="7.5" fill="none"/></g></g><text transform="translate(333 467)" fill="#0f0f0f" font-size="25" font-family="AdobeClean-Regular, Adobe Clean"><tspan x="0" y="0">Everything starts with HTTP</tspan><tspan x="0" y="31">protocol which is used to transfer</tspan><tspan x="0" y="62" xml:space="preserve"> information across internet. </tspan></text></g></g></svg>