<svg xmlns="http://www.w3.org/2000/svg" xmlns:xlink="http://www.w3.org/1999/xlink" width="418" height="429.987" viewBox="0 0 418 429.987"><defs><filter id="a" x="0" y="111.987" width="418" height="318" filterUnits="userSpaceOnUse"><feOffset dy="3" input="SourceAlpha"/><feGaussianBlur stdDeviation="3" result="b"/><feFlood flood-opacity="0.525"/><feComposite operator="in" in2="b"/><feComposite in="SourceGraphic"/></filter><filter id="c" x="0" y="0" width="418" height="100" filterUnits="userSpaceOnUse"><feOffset dy="3" input="SourceAlpha"/><feGaussianBlur stdDeviation="3" result="d"/><feFlood flood-opacity="0.431"/><feComposite operator="in" in2="d"/><feComposite in="SourceGraphic"/></filter></defs><g transform="translate(-677 -635)"><g transform="translate(686 625.296)"><g transform="matrix(1, 0, 0, 1, -9, 9.7)" filter="url(#a)"><path d="M536.4,461.032h-357a21.535,21.535,0,0,1-21.5-21.522V182.554a21.534,21.534,0,0,1,21.5-21.522h357a21.534,21.534,0,0,1,21.5,21.522V439.51A21.534,21.534,0,0,1,536.4,461.032Z" transform="translate(-148.9 -43.05)" fill="#e6e6e6"/></g><path d="M181.919,441.106H526.887a10.471,10.471,0,0,0,10.459-10.483V184.668a10.471,10.471,0,0,0-10.459-10.483H181.919a10.471,10.471,0,0,0-10.459,10.483V430.623A10.471,10.471,0,0,0,181.919,441.106Z" transform="translate(-154.403 -29.955)" fill="#fff"/><path d="M200.854,270.312a7.51,7.51,0,1,0,0,15H496.86a7.51,7.51,0,1,0,0-15Z" transform="translate(-148.857 -2.749)" fill="#e6e6e6"/><path d="M200.854,307.024a7.51,7.51,0,1,0,0,15H496.86a7.51,7.51,0,1,0,0-15Z" transform="translate(-148.857 8.518)" fill="#e6e6e6"/><path d="M279.893,194.562a2.31,2.31,0,0,0-2.308,2.308v58.594a2.31,2.31,0,0,0,2.308,2.308H360.31a2.31,2.31,0,0,0,2.308-2.308V196.87a2.31,2.31,0,0,0-2.308-2.308Z" transform="translate(-120.102 -26.598)" fill="#6c63ff"/><circle cx="12.695" cy="12.695" r="12.695" transform="translate(187.305 181.563)" fill="#fff"/><path d="M336.424,242.84a12.6,12.6,0,0,1-1.385,5.771H296.261a12.694,12.694,0,0,1,11.31-18.466h16.157a12.688,12.688,0,0,1,12.7,12.681Z" transform="translate(-115.65 -15.034)" fill="#fff"/><g transform="translate(157.213 358.773)"><path d="M306.9,345.571a13.4,13.4,0,1,0,0,26.8h53.6a13.4,13.4,0,1,0,0-26.8Z" transform="translate(-293.499 -345.571)" fill="#6c63ff"/><text transform="translate(16.651 1.711)" fill="#fff" font-size="20" font-family="AdobeClean-Regular, Adobe Clean"><tspan x="0" y="20">Log In</tspan></text></g></g><g transform="matrix(1, 0, 0, 1, 677, 635)" filter="url(#c)"><rect width="400" height="82" transform="translate(9 6)"/></g><text transform="translate(686 641)" fill="#fff" font-size="27" font-family="AdobeClean-Regular, Adobe Clean"><tspan x="0" y="27">For example; when you log in to the </tspan><tspan x="0" y="60">website.</tspan></text></g></svg>