<svg xmlns="http://www.w3.org/2000/svg" xmlns:xlink="http://www.w3.org/1999/xlink" width="577.048" height="302" viewBox="0 0 577.048 302"><defs><filter id="a" x="29.048" y="2" width="420" height="300" filterUnits="userSpaceOnUse"><feOffset dy="3" input="SourceAlpha"/><feGaussianBlur stdDeviation="3" result="b"/><feFlood flood-opacity="0.502"/><feComposite operator="in" in2="b"/><feComposite in="SourceGraphic"/></filter><filter id="c" x="0" y="30.141" width="256.512" height="201.092" filterUnits="userSpaceOnUse"><feOffset dy="3" input="SourceAlpha"/><feGaussianBlur stdDeviation="3" result="d"/><feFlood flood-opacity="0.502"/><feComposite operator="in" in2="d"/><feComposite in="SourceGraphic"/></filter><filter id="e" x="230.663" y="33.131" width="346.385" height="208.625" filterUnits="userSpaceOnUse"><feOffset dy="3" input="SourceAlpha"/><feGaussianBlur stdDeviation="3" result="f"/><feFlood flood-opacity="0.502"/><feComposite operator="in" in2="f"/><feComposite in="SourceGraphic"/></filter></defs><g transform="translate(-1263.795 -663)"><g transform="matrix(1, 0, 0, 1, 1263.79, 663)" filter="url(#a)"><rect width="402" height="282" transform="translate(38.05 8)" fill="#efefef" opacity="0.999"/></g><g transform="translate(1272.795 663)"><g transform="matrix(1, 0, 0, 1, -9, 0)" filter="url(#c)"><path d="M138.44,691.831c1.968-3.029,5.043.3,10.574-3.578s6.89-10.17,16.326-17.259,17.5-10.184,25.451-7.826c2.84,1.114,6.066,7.363,10.494,9.9,7.388,4.242,16.875,4.594,16.875,4.594s47.2,3.625,66.322,0,11.586-10.873,21.682-14.022,28.22,10.959,30.549,16.712,12.837,4.493,15.332,6.722-2.17,6.059-5.722,7.916c-1.19.622,2.062.4,6.188,2.373a32.064,32.064,0,0,1,7.374,5.7c3.827,3.32,5.3,9.9,5.205,15.035s-5.574,5.513-5.574,5.513,3.356,4.632,4.366,8.744-.5,6.434,0,8.594-.232,3.323.223,5.708c.646,3.228,3.043,3.866,1.9,6.609s-3.8,4.544-7.187,5.3-6.377-2.279-6.377-2.279a37.643,37.643,0,0,1,1.3,8.806,50.043,50.043,0,0,1-.647,11.868c-2.071,9.619-2.875,12.557-8.286,18.627-1.948,2.185-4.079,4.537-6.413,5.654-3.241,1.559-6.944,0-6.944,0s.291,6.651-6.8,13.21c-2.7,2.5-6.236,5.987-10.19,8.291-5.589,3.259-8.882,2.789-13.146,6.577s-1.864,9.934-4.014,9.906-7.66-5.675-7.66-5.675a32.4,32.4,0,0,1-12.018,9.121c-7.3,2.982-10.779,2.787-17.183,2.806s-7.513-.032-8.875-2.393,3.429-7.054,3.429-7.054a31.16,31.16,0,0,0-4.381,2.347c-2.664,1.66-2.593,3.618-6.273,4.294-5.129.942-10.767-.651-15.982-.42-4.156.184-3.14,2.327-5.137,1.234s-3.956-3.289-2.852-5.6a23.455,23.455,0,0,1-16.074,0c-7.89-3.011-8.769-4.28-14.112-8.523a25.969,25.969,0,0,1-7.261-8.448s-.653,3.431-3.977,2.517-3.331-1.013-9.319-6.171A69.78,69.78,0,0,1,155.1,797.893a32.249,32.249,0,0,1-2.794-12.834s-3.238,2.017-5.946.911-4.307-1.194-5.618-5.031c.131-1.428,2.4-1.564,2.368-4.714s-3.659-8.154-3.659-8.154-2.967-4.041-6.32-9.18-3.118-12.56-3.118-12.56a36.417,36.417,0,0,1,.577-8.138,13.985,13.985,0,0,1,2.595-5.507s-4.028-.275-5.08-3.09.87-8.17.87-8.17a40.99,40.99,0,0,1,5.741-12.3,36.408,36.408,0,0,1,9.857-8.613,19.18,19.18,0,0,1-5.83-3.727C137.455,695.472,136.677,694.547,138.44,691.831Z" transform="translate(-118.79 -626.25)" fill="#6a6ffd" opacity="0.995"/></g><path d="M140.7,692.884c2.113-1.624,5.885,1.725,13.851-3.438s9.534-11.386,18.012-17.213,8.574-5.666,11.689-6.225,10.4.831,9.213,1.969-4.762.244-9.766,2.71-10.5,5.727-9.716,6.908,7.855-2.184,12.859-2.184S194,677.595,194,677.595s-7.814.535-11.753,1.363-4,1.948-4,1.948,14.007-1.025,13.692,0-8.378.876-14.95,4.1a40.2,40.2,0,0,0-11.338,8.8,77.367,77.367,0,0,0,9.146-.926,33.774,33.774,0,0,0,6.877-2s-.29,2.232-3.968,4.387-5.766.259-10.742,4.234-9.968,8.748-9.163,11.664,12.384,0,12.384,0a52.731,52.731,0,0,0-11.529,5.556c-4.8,3.336-4.979,3.949-7.676,7.787a18.055,18.055,0,0,0-3.113,7.565,11.915,11.915,0,0,1-.555-7.565c1.077-4.224,3.051-4.727,4.862-9.329s5.767-10.081,2.382-9.079-6.693,3.019-11.589,8.264-8.054,12.943-8.358,13.1-3.62,1.25-1.621-3.994a64.921,64.921,0,0,1,9.979-17.372,47.7,47.7,0,0,1,11.589-10.832s-.269-1.628-2.382-1.46-3.2,2.364-6.069,2.132S138.584,694.508,140.7,692.884Z" transform="translate(-126.934 -625.585)" fill="#a18bff"/><path d="M272.234,671.667s1.495-7.254,7.814-5.826,6.987,5.477,17.465,11.539c4.3,2.485,6.989,7.928,10.073,9.488,3.657,1.848,10.251,2.572,10.251,2.572s-7.994-1.277-5.336,3.456,10.349,8.052,14.965,14.406,3.5,11.009,3.5,11.009-3.331-.408-7.209-5.216-6.581-9.012-10.46-12.523-5.056-1.522-5.056-1.522,6.192,8.192,8.591,12.216,1,3.877,1,3.877,7.222,7.276,9.629,12.426,0,8.177,0,8.177a21.159,21.159,0,0,0-4.767-9.157c-3.973-4.617-6.659-6.185-11.124-9.309s-6.735-3.189-6.735-3.189h9.716s-5.7-7.457-12.043-11.8a38.149,38.149,0,0,0-13.325-5.57l11.533-1.612-10.774-4.3,10.105-.706s-4.928-2.914-9.012-5.6-3.309-3.579-7.324-5.14a21.859,21.859,0,0,0-8.739-1.1l14.97-.883s-2.926-4.285-7.195-5.713-9.881,0-9.881,0Z" transform="translate(-100.448 -625.628)" fill="#a18bff"/><path d="M139.831,727.46c1.995,2.537,3.991,17.556,3.991,17.556s3.919,9.756,7.119,9.756,5.682-9.756,5.682-9.756-2.489,8.651,0,15.443,5.462,5.086,9.957,11.728a104.54,104.54,0,0,1,8.026,14.841s-1.209-9.513,0-10.513c.743-.614,2.4,1.983,3.74,4.4.557,1,3.48,11.529,8.869,18S201,808.9,201,808.9h5.315l-3.247-6.432a151.8,151.8,0,0,0,17.219,9.521,43.035,43.035,0,0,0,12.958,3.654s-13.7-8.087-8.406-8.535,15.48,7.357,29.564,6.74,15.829-3.425,26.771-9.206a54.86,54.86,0,0,0,17-13.919s-8.136,11.872-6.39,13.919,5.571,1.585,13.373-5.733,12.156-12.5,17.835-23.539,2.884-19.8,4.88-20.6-.017,18.538,3.1,17.415,6.576-13.339,9.381-21.908.541-12.366,1.838-12.366,8.413,8.671,5.763,16.859-8.77,20.751-13.015,28.259-3.967,1.773-3.967,1.773v-3.982a95.425,95.425,0,0,1-12.3,18.087c-7.067,7.792-9.764,8.242-15.971,13.08a76.611,76.611,0,0,1-8.856,6.27s5.016-.673-4.253,0-22.386,8.036-31.185,9.818-4.012-2.691-4.012-2.691,2.647-2.828-2.024-2.488-16.659,3.851-16.659,3.851-8.1,1.3-13.325,0a12.944,12.944,0,0,1-7.59-5.209s-4.839,1.789-11.737-1.371-9.086-5.954-15.854-11.269S178.8,799.974,176,798.91s0,5.733,0,5.733a42.884,42.884,0,0,1-11.655-11.766c-5.588-8.114-10.7-20.689-10.7-20.689s-.668-6.6-2.7-6.6-5.442,6.6-5.442,6.6,1.828-4.509,0-11.728-4.9-10.75-7.312-17.148S137.836,724.924,139.831,727.46Z" transform="translate(-126.034 -613.992)" fill="#494ffd"/><path d="M159.82,717.576c5.983-.706,0,6.41,0,6.41a55.776,55.776,0,0,0,16.37,6.273,59.708,59.708,0,0,0,17.9,0s-4.178,3.759,0,5.418,9.858,1.566,16.71,1.218,6.752-2.306,10.7-2.611,5.089,1.393,5.089,1.393a43.839,43.839,0,0,1,19.685-3.369c10.409.892,14.883,5.2,21.95,6.937s6.317,0,6.317,0l-1.436-4.961s10.34,4.308,17.9,4.961a21.281,21.281,0,0,0,12.339-2.35L301,734.283a21.9,21.9,0,0,0,11.869,0c6.245-1.85,9.833-3.638,13.111-7.4s0-7.655,0-7.655,5.972.995,7.962,4.759,0,10.3,0,10.3.4-4.677-3.075-4.025-4.988,4.976-10.824,6.635-8.344-2.031-12.519,0,1.64,6.438-4.18,8.125-12.616-.25-19.1-1.375-6.95.782-12.774,0-3.168-.332-10.912-1.238-9.1-4.738-18.084-4.738-10.1,3.021-17.279,3.608c-4.078.334-6.284.737-6.827-.326-.048-.163-.286.164-.811-.512.187,0,.813-1.307,0-1.194-5.65.782-8.028,4.4-15.137,4.4s-8.918-1.566-13.3-4.4a8.491,8.491,0,0,1-4.23-6.937s-7.319,2.488-13.883,1.976a31.958,31.958,0,0,1-12.371-4.025l-3.2-3.377v5.426s-4.646-1.743-3.548-5.426S153.837,718.282,159.82,717.576Z" transform="translate(-123.266 -615.807)" fill="#0721af"/><path d="M155.212,726.133c-1.282-2.615.645,10.057,4,13.365s5.758,3.871,10.641,9.539a85.056,85.056,0,0,1,8.891,13.133s3.851,4.571,5.672,5.335c.55.231,1.869.245.7-2.949-2.29-6.264-9.852-20.377-15.262-26.682-1.372-1.6-1.229-3.772-2.717-5.108C163.127,731.376,156.267,728.286,155.212,726.133Z" transform="translate(-122.679 -614.245)" fill="#4f62cb"/><path d="M271.618,774.585c.987,1.032,18.327-22.862,25.946-32.2s5.273-4.128,5.273-4.128.421,4.806,2.361,4.128,4.289-3.338,5.4-6.84c0,0-.089-2.716,0-3.025,1.014-3.193-.693-4.434-.693-4.434s-8.553.187-17.155,11.455S270.631,773.553,271.618,774.585Z" transform="translate(-100.575 -613.809)" fill="#4f62cb"/><path d="M186.024,771.981c9.816,8.638,18.617,19.587,37.61,25.466s23.218,3.1,38.364-1.949,22.223-18.23,22.223-18.23l7.22-12.5s-20.359,22.676-41.357,27.593c-6.7,1.568-11.844.828-16.557.534-8.959-.554-14.888-3.442-26.076-8.459-2.234-1-3.836-2.436-5.972-3.9-11.32-7.755-15.838-19.482-20.466-22.173C175.656,755.249,176.208,763.343,186.024,771.981Z" transform="translate(-118.359 -608.205)" fill="#a48bf8"/><path d="M166.327,731.744c2.117.293,12.521.044,15.885-1.9-.286,1.756,2.126,5.986,4.919,7.494,2.29,1.9,8,3.042,12.1,3.434,7.748.739,6.912-3.169,15.014-4.414,1-.154,1.121,2.992,2.371,2.835a55.859,55.859,0,0,1,6.575-.518c2.676-.082,7.861-3.377,12.35-3.377,9.168,0,7.952-1.415,11.563-.525s11.531,4.814,17.466,5.229c1.929.135,8.058.512,10.467-1.549,3.829,4.187,24,4.578,24,4.578A8.979,8.979,0,0,0,303.854,740c-.259-.245-2.582-4.467,1.461-5.66,2.565-1.316,10.158.137,10.508.841.829,1.668-2.632,2.534-5.879,8.337s-1.63,4.978-9.594,16.051-9.014,17.749-24.458,27.5-18.009,12.624-37.315,11.5-24.459-5.44-39.218-15.738c-7.483-5.221-7.486-8.163-10.972-11.841-2.038-3.2-5.629-7.616-8.809-13.639-3.639-6.89-6.508-12.972-9.536-17.26C168.239,737.306,164.686,734.814,166.327,731.744Z" transform="translate(-120.579 -613.476)"/><g transform="translate(65.048)" fill="#fff" stroke="#707070" stroke-width="1"><ellipse cx="31" cy="32" rx="31" ry="32" stroke="none"/><ellipse cx="31" cy="32" rx="30.5" ry="31.5" fill="none"/></g><circle cx="12.5" cy="12.5" r="12.5" transform="translate(83.048 24)" fill="#0a0a0a"/><g transform="translate(111.048)" fill="#fff" stroke="#707070" stroke-width="1"><circle cx="32" cy="32" r="32" stroke="none"/><circle cx="32" cy="32" r="31.5" fill="none"/></g><circle cx="12.5" cy="12.5" r="12.5" transform="translate(128.048 24)" fill="#0a0a0a"/></g><g transform="matrix(1, 0, 0, 1, 1263.79, 663)" filter="url(#e)"><path d="M44.855,189.626a7.5,7.5,0,0,1-7.5-7.5V34.32c-.466.462-7.85,7.624-16.894,6.653C11.117,39.968,0,30.281,0,30.281s16.1,2.106,25.444-3.253c8.839-5.069,11.635-16.817,11.911-18.072V7.5a7.5,7.5,0,0,1,7.5-7.5H318.809a7.5,7.5,0,0,1,7.5,7.5V182.126a7.5,7.5,0,0,1-7.5,7.5Z" transform="translate(241.24 39.63)" fill="#fff" stroke="#707070" stroke-width="1"/></g><text transform="translate(1548.842 746)" font-size="26" font-family="AdobeClean-Regular, Adobe Clean"><tspan x="0" y="0">Only the HTTP protocol</tspan><tspan x="0" y="32">is stateless what means </tspan><tspan x="0" y="64">the information it </tspan><tspan x="0" y="96">sends is not saved.</tspan></text></g></svg>