<svg xmlns="http://www.w3.org/2000/svg" xmlns:xlink="http://www.w3.org/1999/xlink" width="555" height="519.968" viewBox="0 0 555 519.968"><defs><filter id="a" x="137" y="373.968" width="418" height="146" filterUnits="userSpaceOnUse"><feOffset dy="3" input="SourceAlpha"/><feGaussianBlur stdDeviation="3" result="b"/><feFlood flood-opacity="0.635"/><feComposite operator="in" in2="b"/><feComposite in="SourceGraphic"/></filter></defs><g transform="translate(-129 -1165.032)"><g transform="translate(-449 -122)"><g transform="translate(709.229 1288.049)"><path d="M135.588,683.941c1.44-2.217,3.691.22,7.74-2.619s5.044-7.445,11.951-12.634,12.813-7.455,18.631-5.729c2.079.815,4.441,5.39,7.682,7.25,5.408,3.1,12.353,3.363,12.353,3.363s34.555,2.654,48.549,0,8.481-7.959,15.872-10.264,20.658,8.023,22.363,12.234,9.4,3.289,11.224,4.921-1.589,4.435-4.189,5.795c-.871.455,1.509.3,4.53,1.737a23.475,23.475,0,0,1,5.4,4.171c2.8,2.43,3.878,7.245,3.81,11.006s-4.08,4.036-4.08,4.036a22.62,22.62,0,0,1,3.2,6.4c.739,3.01-.364,4.71,0,6.291s-.17,2.433.163,4.178c.473,2.363,2.227,2.83,1.388,4.838a7.022,7.022,0,0,1-5.261,3.879c-2.482.553-4.668-1.669-4.668-1.669a27.559,27.559,0,0,1,.954,6.447,36.63,36.63,0,0,1-.474,8.687c-1.516,7.041-2.1,9.192-6.065,13.636a16.992,16.992,0,0,1-4.694,4.139,6.894,6.894,0,0,1-5.083,0s.213,4.869-4.977,9.67a44.759,44.759,0,0,1-7.459,6.069c-4.091,2.386-6.5,2.042-9.623,4.815s-1.364,7.272-2.939,7.251-5.608-4.154-5.608-4.154a23.715,23.715,0,0,1-8.8,6.677c-5.344,2.183-7.89,2.04-12.579,2.054s-5.5-.023-6.5-1.752,2.51-5.163,2.51-5.163a22.8,22.8,0,0,0-3.207,1.718c-1.95,1.215-1.9,2.648-4.592,3.143-3.754.69-7.882-.476-11.7-.307-3.042.135-2.3,1.7-3.761.9s-2.9-2.408-2.088-4.1a17.17,17.17,0,0,1-11.766,0c-5.776-2.2-6.419-3.133-10.33-6.239a19.01,19.01,0,0,1-5.315-6.184,2.271,2.271,0,0,1-2.911,1.843c-2.433-.669-2.438-.742-6.822-4.517a51.082,51.082,0,0,1-10.63-14.175,23.606,23.606,0,0,1-2.046-9.395s-2.371,1.477-4.352.667-3.153-.874-4.112-3.683c.1-1.045,1.753-1.145,1.734-3.451s-2.678-5.969-2.678-5.969-2.172-2.958-4.626-6.72-2.283-9.195-2.283-9.195a26.658,26.658,0,0,1,.423-5.957,10.237,10.237,0,0,1,1.9-4.031s-2.948-.2-3.719-2.262.637-5.981.637-5.981a30.005,30.005,0,0,1,4.2-9.007,26.651,26.651,0,0,1,7.215-6.3,14.04,14.04,0,0,1-4.268-2.728C134.867,686.606,134.3,685.929,135.588,683.941Z" transform="translate(-127.795 -627.327)" fill="#ee4035" opacity="0.995"/><path d="M177.886,644.754c-.034-1.749.86-11.261,7.244-17.147s10.317-6.064,13.47-6.411,10.976.367,15.578,3.709a26.156,26.156,0,0,1,7.652,9.675,35.549,35.549,0,0,1,.788,4.062l2-4.062s2.93-6.632,8.781-9.675,13.841-1.968,14.9-1.791a21.36,21.36,0,0,1,12.222,6.494c4.691,5.274,5.847,13.893,5.847,13.893a21.843,21.843,0,0,1-2.709,12.445,31.257,31.257,0,0,1-10.562,10.807c-3.959,2.475-35.379,2.863-56.987-.643-8.918-1.447-14.307-8.681-15.188-10.165A21.826,21.826,0,0,1,177.886,644.754Z" transform="translate(-134.275 -621.116)" fill="#fff" stroke="#6f6f6f" stroke-width="2"/><circle cx="9" cy="9" r="9" transform="translate(55.771 13.951)" fill="#0a0a0a"/><ellipse cx="9.5" cy="8.5" rx="9.5" ry="8.5" transform="translate(99.771 16.951)" fill="#0a0a0a"/><path d="M138.458,685.648c1.546-1.189,4.308,1.263,10.139-2.517s6.979-8.335,13.185-12.6,6.276-4.148,8.557-4.557,7.616.609,6.744,1.441-3.486.179-7.149,1.984-7.687,4.192-7.112,5.057,5.75-1.6,9.413-1.6,5.238,1.6,5.238,1.6-5.72.392-8.6,1-2.93,1.426-2.93,1.426,10.253-.751,10.023,0-6.133.641-10.944,3a29.428,29.428,0,0,0-8.3,6.443,56.639,56.639,0,0,0,6.695-.678,24.723,24.723,0,0,0,5.034-1.465s-.213,1.634-2.9,3.211-4.221.19-7.864,3.1-7.3,6.4-6.708,8.538,9.066,0,9.066,0a38.6,38.6,0,0,0-8.44,4.067c-3.515,2.442-3.645,2.891-5.619,5.7a13.217,13.217,0,0,0-2.279,5.538,8.722,8.722,0,0,1-.406-5.538c.788-3.092,2.233-3.46,3.559-6.829s4.222-7.379,1.743-6.646-4.9,2.21-8.484,6.049-5.9,9.475-6.119,9.591-2.65.915-1.187-2.924a47.524,47.524,0,0,1,7.305-12.717,34.92,34.92,0,0,1,8.484-7.93s-.2-1.192-1.743-1.069-2.344,1.73-4.443,1.561S136.911,686.836,138.458,685.648Z" transform="translate(-128.383 -627.778)" fill="#f4856a"/><path d="M201.831,676.537c-1.707,5.708-1.563,21.721,3.7,26.409,2.169,1.932,5.073,4.859,8.857,6.725,4.862,2.4,11.141,2.605,15.424,1.851a26.792,26.792,0,0,0,13.987-7.248,27.61,27.61,0,0,0,5.425-9.261,25.7,25.7,0,0,0,1.492-8.254c.094-4.776-.937-11.1-1.979-13.135-1.879-3.659-10.468-16.752-23.315-16.707S203.538,670.829,201.831,676.537Z" transform="translate(-137.248 -626.619)" fill="#f79727" stroke="#de8b2f" stroke-width="0.5"/><path d="M272.234,670.056s1.094-5.31,5.72-4.264,5.115,4.009,12.785,8.447c3.145,1.819,5.116,5.8,7.374,6.945,2.677,1.353,7.5,1.883,7.5,1.883s-5.852-.935-3.906,2.53,7.576,5.894,10.955,10.545,2.562,8.059,2.562,8.059-2.438-.3-5.277-3.818-4.818-6.6-7.657-9.167-3.7-1.114-3.7-1.114,4.533,6,6.289,8.942.735,2.838.735,2.838,5.287,5.326,7.049,9.1,0,5.985,0,5.985a15.49,15.49,0,0,0-3.489-6.7c-2.908-3.38-4.875-4.527-8.143-6.815s-4.93-2.335-4.93-2.335h7.112a46.241,46.241,0,0,0-8.816-8.637,27.926,27.926,0,0,0-9.754-4.078l8.442-1.18L285.2,684.07l7.4-.517s-3.607-2.133-6.6-4.1-2.422-2.62-5.362-3.762a16,16,0,0,0-6.4-.808l10.958-.647a12.074,12.074,0,0,0-5.267-4.182c-3.125-1.046-7.233,0-7.233,0Z" transform="translate(-146.482 -627.749)" fill="#f4856a"/><path d="M139.1,727.367c1.46,1.857,2.922,12.851,2.922,12.851s2.869,7.142,5.211,7.142,4.16-7.142,4.16-7.142-1.822,6.332,0,11.3,4,3.723,7.289,8.585a76.529,76.529,0,0,1,5.875,10.864s-.885-6.964,0-7.7c.544-.449,1.755,1.451,2.738,3.219.408.731,2.547,8.439,6.493,13.173a30.067,30.067,0,0,0,10.092,7.314h3.891l-2.377-4.708A111.118,111.118,0,0,0,198,789.245a31.5,31.5,0,0,0,9.485,2.675s-10.025-5.92-6.153-6.248,11.332,5.385,21.642,4.934,11.587-2.507,19.6-6.739a40.159,40.159,0,0,0,12.444-10.189s-5.955,8.691-4.677,10.189,4.078,1.16,9.79-4.2a54.5,54.5,0,0,0,13.056-17.231c4.157-8.077,2.111-14.5,3.573-15.079s-.012,13.57,2.272,12.748,4.814-9.765,6.867-16.037.4-9.052,1.345-9.052,6.159,6.347,4.219,12.341-6.419,15.191-9.527,20.687-2.9,1.3-2.9,1.3V766.43a69.855,69.855,0,0,1-9,13.24c-5.173,5.7-7.147,6.034-11.691,9.575a56.077,56.077,0,0,1-6.483,4.59s3.672-.492-3.113,0-16.387,5.883-22.828,7.187-2.937-1.97-2.937-1.97,1.937-2.07-1.482-1.821-12.195,2.819-12.195,2.819-5.927.953-9.755,0a9.476,9.476,0,0,1-5.556-3.813s-3.542,1.31-8.592-1-6.651-4.358-11.606-8.249-6.16-6.534-8.213-7.314,0,4.2,0,4.2a31.392,31.392,0,0,1-8.532-8.613c-4.09-5.94-7.83-15.145-7.83-15.145s-.489-4.829-1.98-4.829-3.984,4.829-3.984,4.829,1.338-3.3,0-8.585-3.586-7.87-5.353-12.553S137.638,725.51,139.1,727.367Z" transform="translate(-128.998 -635.701)" fill="#e11735"/><path d="M157.648,717.562c4.38-.517,0,4.692,0,4.692a40.83,40.83,0,0,0,11.983,4.592,43.708,43.708,0,0,0,13.1,0s-3.058,2.751,0,3.966,7.216,1.146,12.232.891,4.943-1.688,7.832-1.911,3.726,1.02,3.726,1.02a32.09,32.09,0,0,1,14.41-2.466c7.62.653,10.9,3.809,16.068,5.078s4.624,0,4.624,0l-1.052-3.632s7.569,3.154,13.1,3.632a15.579,15.579,0,0,0,9.033-1.72l-1.716-1.911a16.028,16.028,0,0,0,8.688,0c4.571-1.355,7.2-2.663,9.6-5.418s0-5.6,0-5.6,4.372.728,5.829,3.483,0,7.539,0,7.539.293-3.424-2.251-2.946-3.652,3.643-7.924,4.857-6.108-1.487-9.164,0,1.2,4.713-3.06,5.948-9.235-.183-13.981-1.007-5.088.572-9.351,0-2.319-.243-7.988-.906-6.663-3.468-13.238-3.468-7.393,2.211-12.648,2.641c-2.985.244-4.6.539-5-.239-.035-.12-.209.12-.594-.375.137,0,.595-.957,0-.874-4.136.572-5.877,3.221-11.081,3.221s-6.528-1.146-9.737-3.221a6.216,6.216,0,0,1-3.1-5.078,29.8,29.8,0,0,1-10.163,1.447,23.392,23.392,0,0,1-9.056-2.946l-2.346-2.472v3.972s-3.4-1.276-2.6-3.972S153.268,718.079,157.648,717.562Z" transform="translate(-130.889 -634.46)" fill="#af0736"/><path d="M155.1,726.038c-.939-1.915.472,7.362,2.93,9.784s4.215,2.833,7.789,6.983a62.264,62.264,0,0,1,6.508,9.614s2.819,3.346,4.152,3.906c.4.169,1.368.179.512-2.158-1.676-4.585-7.212-14.916-11.172-19.532-1-1.17-.9-2.761-1.989-3.739C160.9,729.877,155.877,727.614,155.1,726.038Z" transform="translate(-131.29 -635.528)" fill="#e11735"/><path d="M271.6,762.124c.722.755,13.416-16.736,18.993-23.573s3.86-3.021,3.86-3.021.309,3.518,1.729,3.021,3.139-2.443,3.952-5.007c0,0-.065-1.988,0-2.214.742-2.337-.507-3.246-.507-3.246s-6.261.137-12.558,8.385S270.882,761.368,271.6,762.124Z" transform="translate(-146.396 -635.826)" fill="#e11735"/><path d="M183.776,768.149c7.185,6.323,13.628,14.338,27.532,18.642s17,2.266,28.084-1.427a31.037,31.037,0,0,0,16.268-13.345l5.285-9.148s-14.9,16.6-30.274,20.2c-4.9,1.148-8.67.606-12.12.391-6.558-.406-10.9-2.52-19.088-6.192a28.133,28.133,0,0,1-4.372-2.856c-8.286-5.677-11.594-14.261-14.982-16.231C176.186,755.9,176.59,761.826,183.776,768.149Z" transform="translate(-133.372 -655.327)" fill="#f4856a"/><path d="M202.267,674.4a29.489,29.489,0,0,0-3.712,9.2c-.7,3.214-.093,9.119,1.575,13.126,4.16,9.994,8,13.556,17.84,19.192s20.731-2.428,20.731-2.428,9.348-6.414,12.176-15.621c1.355-4.41,2.213-11.154,1.352-15.476a19.068,19.068,0,0,0-3.108-7.144s.15.95.695,3.477a45.184,45.184,0,0,1,.5,9.332,34.043,34.043,0,0,1-4.807,14.822c-1.692,2.654-9.659,9.3-17.83,9.762s-15.792-3.362-16.917-4.031-7.783-6.031-9.1-11.45-1.306-8.084-1.155-13.776A23.631,23.631,0,0,1,202.267,674.4Z" transform="translate(-136.912 -627.139)" fill="#e01634"/><path d="M204.1,687.022c.627,4.855,10.687,14.249,14.6,15.7s13.649-1.251,20.918-5.651,6.423-13.352,8.185-12.891.06,12.072-1.139,14.733-9.272,11.221-13.164,12.865-12.6,1.825-17.145,0-8.977-6.775-10.45-9.056a25.061,25.061,0,0,1-3.584-9.445C201.6,689.179,203.472,682.167,204.1,687.022Z" transform="translate(-137.415 -630.144)" fill="#f58e1d"/><path d="M212.016,669.338c1.064-.166,7.322-4.4,12.189-5.184s13.288,2.864,14.225,2.19-4.763-4.826-7.531-6.181a15.071,15.071,0,0,0-8.765-.673c-1.387.475-6.7,2.993-7.924,4.664S210.953,669.5,212.016,669.338Z" transform="translate(-138.653 -626.905)" fill="#e6ae64"/><path d="M166.221,730.728c1.582.137,9.357.02,11.87-.886-.214.818,1.589,2.788,3.675,3.49,1.711.886,5.975,1.417,9.043,1.6,5.79.344,5.165-1.476,11.219-2.056.751-.072.838,1.394,1.772,1.32,1.971-.156,2.843-.2,4.913-.241,2-.039,5.874-1.573,9.229-1.573,6.851,0,5.942-.659,8.641-.244s8.617,2.242,13.052,2.436c1.441.063,6.021.238,7.822-.721,2.861,1.95,17.936,2.132,17.936,2.132a8.267,8.267,0,0,0,3.6-1.411c-.193-.114-1.929-2.081,1.092-2.637,1.916-.613,7.591.064,7.852.392.619.777-1.967,1.18-4.393,3.884s-1.218,2.319-7.169,7.476-6.736,8.267-18.276,12.809-13.457,5.88-27.884,5.357-18.277-2.534-29.306-7.331c-5.592-2.432-5.594-3.8-8.2-5.515a77.865,77.865,0,0,1-6.583-6.353c-2.719-3.209-4.863-6.043-7.126-8.04C167.649,733.319,164.994,732.158,166.221,730.728Z" transform="translate(-133.732 -633.442)"/><ellipse cx="3" cy="2.5" rx="3" ry="2.5" transform="translate(107.771 24.951)" fill="#fffcfc"/><circle cx="3" cy="3" r="3" transform="translate(65.771 21.951)" fill="#fffcfc"/></g><g transform="translate(578 1331.586)"><g transform="translate(282.474 97.815) rotate(-33.007)"><path d="M176.967,0H2.507A2.508,2.508,0,0,0,0,2.506V120.725a2.508,2.508,0,0,0,2.507,2.507h174.46a2.5,2.5,0,0,0,1.906-.88.585.585,0,0,0,.055-.068,2.351,2.351,0,0,0,.36-.609,2.444,2.444,0,0,0,.19-.952V2.507A2.509,2.509,0,0,0,176.967,0Zm1.793,120.725a1.775,1.775,0,0,1-.3.983,1.853,1.853,0,0,1-.678.609,1.778,1.778,0,0,1-.819.2H2.507a1.793,1.793,0,0,1-1.791-1.791V2.507A1.793,1.793,0,0,1,2.507.716h174.46a1.793,1.793,0,0,1,1.793,1.791Z" transform="translate(0 0)" fill="#3f3d56"/><rect width="178.758" height="0.717" transform="translate(0.357 10.045)" fill="#3f3d56"/><circle cx="2.15" cy="2.15" r="2.15" transform="translate(4.297 3.224)" fill="#3f3d56"/><circle cx="2.15" cy="2.15" r="2.15" transform="translate(10.477 3.224)" fill="#3f3d56"/><circle cx="2.15" cy="2.15" r="2.15" transform="translate(16.657 3.224)" fill="#3f3d56"/><path d="M47.4,4.4H2.2A2.2,2.2,0,1,1,2.2,0H47.4a2.2,2.2,0,1,1,0,4.4Z" transform="translate(17.163 41.61)" fill="#6c63ff"/><path d="M77.889.575H.287A.287.287,0,0,1,.287,0h77.6a.287.287,0,1,1,0,.575Z" transform="translate(14.576 47.307)" fill="#3f3d56"/><path d="M47.4,4.4H2.2A2.2,2.2,0,1,1,2.2,0H47.4a2.2,2.2,0,1,1,0,4.4Z" transform="translate(17.163 60.02)" fill="#6c63ff"/><path d="M77.889.575H.287A.287.287,0,1,1,.287,0h77.6a.287.287,0,1,1,0,.575Z" transform="translate(14.576 65.716)" fill="#3f3d56"/><path d="M47.4,4.4H2.2A2.2,2.2,0,1,1,2.2,0H47.4a2.2,2.2,0,1,1,0,4.4Z" transform="translate(17.163 78.428)" fill="#f2f2f2"/><path d="M77.889.575H.287A.287.287,0,0,1,.287,0h77.6a.287.287,0,1,1,0,.575Z" transform="translate(14.576 84.124)" fill="#3f3d56"/></g><g transform="translate(268.442 201.09)"><path d="M407.758,197.674H233.3a2.508,2.508,0,0,0-2.507,2.507V318.4a2.508,2.508,0,0,0,2.507,2.507h174.46a2.5,2.5,0,0,0,1.906-.88.583.583,0,0,0,.055-.068,2.351,2.351,0,0,0,.36-.609,2.445,2.445,0,0,0,.19-.952V200.181A2.509,2.509,0,0,0,407.758,197.674ZM409.551,318.4a1.775,1.775,0,0,1-.3.983,1.854,1.854,0,0,1-.678.609,1.778,1.778,0,0,1-.819.2H233.3a1.793,1.793,0,0,1-1.791-1.791V200.181a1.793,1.793,0,0,1,1.791-1.791h174.46a1.793,1.793,0,0,1,1.793,1.791Z" transform="translate(-230.791 -197.674)" fill="#3f3d56"/><rect width="178.758" height="0.717" transform="translate(0.357 10.045)" fill="#3f3d56"/><ellipse cx="2.15" cy="2.15" rx="2.15" ry="2.15" transform="translate(4.297 3.224)" fill="#3f3d56"/><ellipse cx="2.15" cy="2.15" rx="2.15" ry="2.15" transform="translate(10.477 3.224)" fill="#3f3d56"/><ellipse cx="2.15" cy="2.15" rx="2.15" ry="2.15" transform="translate(16.657 3.224)" fill="#3f3d56"/><path d="M337.9,346.847H292.7a2.2,2.2,0,1,1,0-4.4h45.2a2.2,2.2,0,1,1,0,4.4Z" transform="translate(-273.341 -300.841)" fill="#6c63ff"/><path d="M359.393,362.845h-77.6a.287.287,0,0,1,0-.575h77.6a.287.287,0,1,1,0,.575Z" transform="translate(-266.928 -314.963)" fill="#3f3d56"/><path d="M337.9,410.9H292.7a2.2,2.2,0,1,1,0-4.4h45.2a2.2,2.2,0,1,1,0,4.4Z" transform="translate(-273.341 -346.482)" fill="#6c63ff"/><path d="M359.393,426.895h-77.6a.287.287,0,0,1,0-.575h77.6a.287.287,0,1,1,0,.575Z" transform="translate(-266.928 -360.604)" fill="#3f3d56"/><path d="M337.9,474.947H292.7a2.2,2.2,0,1,1,0-4.4h45.2a2.2,2.2,0,1,1,0,4.4Z" transform="translate(-273.341 -392.123)" fill="#f2f2f2"/><path d="M359.393,490.944h-77.6a.287.287,0,0,1,0-.575h77.6a.287.287,0,1,1,0,.575Z" transform="translate(-266.928 -406.245)" fill="#3f3d56"/></g><g transform="translate(0 126.989)"><path d="M443.107,197.674H233.8a3.01,3.01,0,0,0-3.007,3.007V342.515a3.01,3.01,0,0,0,3.007,3.007H443.107a3,3,0,0,0,2.286-1.055.7.7,0,0,0,.065-.083,2.819,2.819,0,0,0,.435-.728,2.934,2.934,0,0,0,.227-1.141V200.681A3.01,3.01,0,0,0,443.107,197.674Zm2.152,144.841a2.129,2.129,0,0,1-.355,1.18,2.223,2.223,0,0,1-.814.731,2.133,2.133,0,0,1-.983.238H233.8a2.15,2.15,0,0,1-2.148-2.148V200.681a2.15,2.15,0,0,1,2.148-2.148H443.107a2.151,2.151,0,0,1,2.152,2.149Z" transform="translate(-230.791 -197.674)" fill="#3f3d56"/><rect width="214.467" height="0.859" transform="translate(0.428 12.051)" fill="#3f3d56"/><ellipse cx="2.579" cy="2.579" rx="2.579" ry="2.579" transform="translate(5.156 3.868)" fill="#3f3d56"/><ellipse cx="2.579" cy="2.579" rx="2.579" ry="2.579" transform="translate(12.57 3.868)" fill="#3f3d56"/><ellipse cx="2.579" cy="2.579" rx="2.579" ry="2.579" transform="translate(19.984 3.868)" fill="#3f3d56"/><path d="M911.99,452.218H840.373a3.255,3.255,0,0,1,0-6.51H911.99a3.255,3.255,0,1,1,0,6.51Z" transform="translate(-747.082 -365.25)" fill="#f2f2f2"/><path d="M865.2,418.218H840.374a3.255,3.255,0,0,1,0-6.51H865.2a3.255,3.255,0,0,1,0,6.511Z" transform="translate(-747.082 -345.085)" fill="#f2f2f2"/><ellipse cx="13.835" cy="13.835" rx="13.835" ry="13.835" transform="translate(47.019 63.265)" fill="#6c63ff"/><path d="M840.669,385.456H711.678a6.928,6.928,0,0,0-6.918,6.918v28.484a6.928,6.928,0,0,0,6.917,6.917H840.669a6.927,6.927,0,0,0,6.917-6.918V392.372a6.927,6.927,0,0,0-6.917-6.918Zm6.1,35.4a6.111,6.111,0,0,1-6.1,6.1H711.678a6.111,6.111,0,0,1-6.1-6.1V392.372a6.111,6.111,0,0,1,6.1-6.1H840.669a6.111,6.111,0,0,1,6.1,6.1Z" transform="translate(-668.582 -329.515)" fill="#3f3d56"/></g></g></g><g transform="matrix(1, 0, 0, 1, 129, 1165.03)" filter="url(#a)"><rect width="400" height="128" transform="translate(146 379.97)"/></g><text transform="translate(287 1586)" fill="#fff" font-size="27" font-family="AdobeClean-Regular, Adobe Clean"><tspan x="0" y="0">If you want to open multiple tabs </tspan><tspan x="0" y="33">at the same time, you would have </tspan><tspan x="0" y="66">to login every time.</tspan></text></g></svg>