<svg xmlns="http://www.w3.org/2000/svg" xmlns:xlink="http://www.w3.org/1999/xlink" width="469.048" height="336" viewBox="0 0 469.048 336"><defs><filter id="a" x="80.048" y="0" width="389" height="279" filterUnits="userSpaceOnUse"><feOffset dy="3" input="SourceAlpha"/><feGaussianBlur stdDeviation="3" result="b"/><feFlood flood-opacity="0.502"/><feComposite operator="in" in2="b"/><feComposite in="SourceGraphic"/></filter><filter id="c" x="244.223" y="187.03" width="198.867" height="122.877" filterUnits="userSpaceOnUse"><feOffset dy="3" input="SourceAlpha"/><feGaussianBlur stdDeviation="3" result="d"/><feFlood flood-opacity="0.502"/><feComposite operator="in" in2="d"/><feComposite in="SourceGraphic"/></filter><filter id="e" x="196.554" y="50.548" width="153.338" height="148.977" filterUnits="userSpaceOnUse"><feOffset dy="3" input="SourceAlpha"/><feGaussianBlur stdDeviation="3" result="f"/><feFlood flood-opacity="0.502"/><feComposite operator="in" in2="f"/><feComposite in="SourceGraphic"/></filter><filter id="g" x="0" y="33.359" width="238.149" height="186.996" filterUnits="userSpaceOnUse"><feOffset dy="3" input="SourceAlpha"/><feGaussianBlur stdDeviation="3" result="h"/><feFlood flood-opacity="0.502"/><feComposite operator="in" in2="h"/><feComposite in="SourceGraphic"/></filter><filter id="i" x="272.533" y="35.161" width="106.572" height="106.572" filterUnits="userSpaceOnUse"><feOffset dy="3" input="SourceAlpha"/><feGaussianBlur stdDeviation="3" result="j"/><feFlood flood-opacity="0.596"/><feComposite operator="in" in2="j"/><feComposite in="SourceGraphic"/></filter></defs><g transform="translate(-715.952 -1220)"><g transform="translate(724.952 1226)"><g transform="matrix(1, 0, 0, 1, -9, -6)" filter="url(#a)"><rect width="371" height="261" transform="translate(89.05 6)" fill="#efefef" opacity="0.999"/></g><g transform="matrix(1, 0, 0, 1, -9, -6)" filter="url(#c)"><path d="M4.695,0H176.172a4.447,4.447,0,0,1,4.695,4.148v96.581a4.447,4.447,0,0,1-4.695,4.148H4.695A4.447,4.447,0,0,1,0,100.729V4.148A4.447,4.447,0,0,1,4.695,0Z" transform="translate(253.22 193.03)" fill="#fff"/></g><text transform="translate(263.048 193)" font-size="25" font-family="HelveticaNeue, Helvetica Neue"><tspan x="0" y="24">That is when </tspan><tspan x="0" y="54">we can use </tspan><tspan x="0" y="84">cookies!</tspan></text><g transform="matrix(0.998, 0.07, -0.07, 0.998, 203.396, 45.33)"><g transform="matrix(1, -0.07, 0.07, 1, -215.46, -36.39)" filter="url(#e)"><path d="M.446,105.609c.586-4.4,4.451-7.234,6.814-11.941,3.864-7.7,2.351-9.412,3.845-18.247a52.566,52.566,0,0,1,6.226-16.531s2.088,3.233,3.093,1.764,1.666-8.53,1.666-8.53a27.136,27.136,0,0,1-5.3-7.186c-1.422-2.83-1.75-7.171-3.186-8.748-3.411-3.746-6.515-3.63-8.51-5.878s5.96,2.468,4.563.854c-.694-1.234-2.442-.462-4.222-1.756-1.97-1.432-3.635-4.188-3.765-5.935-.226-3.039,3.314-2.982,6.6-4.3,1.719-.691-2.552-1.562-1.651-2.13a14.53,14.53,0,0,1,6.464-.686c4.075,1.032,7.684,7.885,9.773,6.658s1.095-2.474,2.4-7.429.584-10.46,1.511-11.935,1.864,4.829,1.864,4.829S32.3.149,36.6,0,46.374,3.24,45.37,6.519s-2.338,4.209-3.5,8.04a39.034,39.034,0,0,0-1.446,7.309s8.155-6.072,11-6.921.115,2.969.115,2.969,6.893-1.211,9.2,1.323c1.362,1.495,1.166,5.042,1.23,6.685.039,1.018-3.778,4.2-4.7,3.079-.631-.774,2.667-3.913,1.7-3.2-1.48,1.094-3.026,5.366-4.6,6.51a36.917,36.917,0,0,1-6.04,3.591s9.15-1.864,12.616,1.049,3.433,4.5,1.76,7.985a9.059,9.059,0,0,1-7.636,5.487c-2.3.255-4.288-.62-6.188-.251-1.658.32-2.672,4.473-3.47,6.289-1.523,3.467-5.339,2.431-5.339,2.431a26.452,26.452,0,0,1,.306,7.912,13.417,13.417,0,0,1-2.622,5.857s5.051-.851,4.444,1.52-5.667,5.756-5.667,5.756,2.177,6.04.4,10.375-8.711,9.173-8.711,9.173,1.064,4.551-.936,8.1-7.061,6.084-7.061,6.084l3.165,2.074a31.474,31.474,0,0,0-7.892,3.122c-3.092,1.907-4.943,4.753-6.83,3.732C4.965,120.594-1.8,110.287.446,105.609Z" transform="translate(297.5 57.28) rotate(48)" fill="#6a6ffd" stroke="#000" stroke-width="1"/></g><path d="M.044.154c.4-.942,2.7,2.661,5.045,4.922S8.585,7.414,9.424,9.2s0,3.384-.981,3.014S6.738,8.559,5.5,7.717s-.654,3.018-2.018,1.127S-.359,1.1.044.154Z" transform="matrix(0.719, 0.695, -0.695, 0.719, 83.753, 41.979)"/><path d="M.015,50.56c.4,1.428,2.535.109,9.187-2.7s11.741-1.99,17.939-5.688a18.637,18.637,0,0,0,6.889-6.675,8.516,8.516,0,0,1,3.228-3.787c6.928-4.865,10.646-5.6,17.867-8.472s8.447,6.021,13.114,2.688S69.384,16.386,70.772,9.9,74.949,0,73.792,0s-4.229,5.81-7.648,9.9-.488,3.149-3.84,5.3-1.733.508-7.178,2.554S49.414,19.4,42.509,23.235s-10.015,7.121-16.47,11.179S17.8,36.3,12.513,40.8-.382,49.132.015,50.56Z" transform="translate(23.184 43.258)" fill="#a18bff"/></g><g transform="matrix(1, 0, 0, 1, -9, -6)" filter="url(#g)"><path d="M137.621,689.564c1.816-2.8,4.654.278,9.76-3.3s6.359-9.387,15.069-15.93,16.156-9.4,23.491-7.224c2.621,1.028,5.6,6.8,9.686,9.142,6.819,3.915,15.575,4.24,15.575,4.24s43.57,3.346,61.216,0,10.694-10.036,20.012-12.942,26.047,10.116,28.2,15.426,11.848,4.147,14.152,6.2-2,5.592-5.282,7.307c-1.1.574,1.9.372,5.712,2.19a29.6,29.6,0,0,1,6.807,5.259c3.532,3.064,4.889,9.136,4.8,13.877s-5.145,5.089-5.145,5.089a28.522,28.522,0,0,1,4.03,8.07c.932,3.795-.459,5.939,0,7.932s-.214,3.068.206,5.269c.6,2.979,2.808,3.568,1.75,6.1s-3.5,4.194-6.634,4.891-5.886-2.1-5.886-2.1a34.746,34.746,0,0,1,1.2,8.128,46.194,46.194,0,0,1-.6,10.954c-1.912,8.878-2.654,11.59-7.648,17.193-1.8,2.017-3.765,4.188-5.919,5.218-2.992,1.439-6.409,0-6.409,0s.269,6.139-6.276,12.193c-2.493,2.306-5.756,5.526-9.406,7.653-5.159,3.008-8.2,2.574-12.134,6.071s-1.72,9.169-3.705,9.143-7.071-5.238-7.071-5.238a29.9,29.9,0,0,1-11.093,8.419c-6.738,2.752-9.949,2.573-15.86,2.59s-6.935-.029-8.192-2.209,3.165-6.511,3.165-6.511a28.761,28.761,0,0,0-4.044,2.166c-2.458,1.532-2.393,3.339-5.79,3.963-4.734.87-9.938-.6-14.751-.387-3.836.17-2.9,2.148-4.742,1.139s-3.651-3.036-2.632-5.173a21.65,21.65,0,0,1-14.836,0c-7.283-2.779-8.094-3.951-13.026-7.867a23.968,23.968,0,0,1-6.7-7.8s-.6,3.166-3.671,2.323-3.074-.935-8.6-5.7A64.407,64.407,0,0,1,153,787.46a29.766,29.766,0,0,1-2.579-11.846s-2.989,1.862-5.488.84-3.975-1.1-5.185-4.644c.121-1.318,2.211-1.444,2.186-4.351s-3.377-7.526-3.377-7.526-2.738-3.73-5.833-8.474-2.878-11.593-2.878-11.593a33.614,33.614,0,0,1,.533-7.512,12.908,12.908,0,0,1,2.395-5.083s-3.717-.254-4.689-2.852.8-7.541.8-7.541a37.834,37.834,0,0,1,5.3-11.357,33.6,33.6,0,0,1,9.1-7.95,17.7,17.7,0,0,1-5.382-3.44C136.712,692.924,135.993,692.071,137.621,689.564Z" transform="translate(-118.79 -623.03)" fill="#6a6ffd" opacity="0.995"/></g><path d="M140.054,690.8c1.95-1.5,5.432,1.592,12.785-3.173s8.8-10.509,16.625-15.888,7.914-5.23,10.79-5.745,9.6.767,8.5,1.817-4.4.226-9.014,2.5-9.693,5.286-8.968,6.376,7.251-2.016,11.869-2.016,6.6,2.016,6.6,2.016-7.213.494-10.849,1.258-3.695,1.8-3.695,1.8,12.928-.947,12.638,0-7.733.808-13.8,3.786a37.107,37.107,0,0,0-10.465,8.124,71.4,71.4,0,0,0,8.441-.854,31.175,31.175,0,0,0,6.348-1.847s-.268,2.06-3.663,4.049-5.322.239-9.915,3.908-9.2,8.074-8.458,10.766,11.431,0,11.431,0a48.672,48.672,0,0,0-10.642,5.128c-4.432,3.079-4.6,3.645-7.085,7.187a16.665,16.665,0,0,0-2.873,6.983,11,11,0,0,1-.512-6.983c.994-3.9,2.816-4.363,4.488-8.61s5.323-9.3,2.2-8.38-6.178,2.787-10.7,7.627-7.434,11.946-7.715,12.094-3.341,1.154-1.5-3.687a59.921,59.921,0,0,1,9.211-16.034,44.035,44.035,0,0,1,10.7-10s-.248-1.5-2.2-1.348-2.955,2.182-5.6,1.968S138.1,692.3,140.054,690.8Z" transform="translate(-127.35 -628.688)" fill="#a18bff"/><path d="M272.234,671.2s1.38-6.7,7.213-5.377,6.449,5.055,16.12,10.651c3.965,2.294,6.451,7.318,9.3,8.757,3.375,1.706,9.461,2.374,9.461,2.374s-7.379-1.179-4.925,3.19,9.552,7.432,13.813,13.3,3.231,10.162,3.231,10.162-3.075-.376-6.654-4.814-6.075-8.318-9.655-11.559-4.666-1.4-4.666-1.4,5.715,7.562,7.93,11.275.927,3.579.927,3.579,6.666,6.715,8.888,11.47,0,7.547,0,7.547a19.531,19.531,0,0,0-4.4-8.452c-3.667-4.261-6.147-5.709-10.268-8.593s-6.217-2.944-6.217-2.944H311.3s-5.262-6.883-11.115-10.891a35.213,35.213,0,0,0-12.3-5.142l10.645-1.488-9.944-3.966,9.327-.652s-4.549-2.69-8.318-5.168-3.054-3.3-6.76-4.744a20.177,20.177,0,0,0-8.066-1.019l13.817-.815s-2.7-3.955-6.641-5.274-9.121,0-9.121,0Z" transform="translate(-113.674 -628.71)" fill="#a18bff"/><path d="M139.62,727.434c1.841,2.341,3.684,16.2,3.684,16.2s3.617,9.005,6.571,9.005,5.245-9.005,5.245-9.005-2.3,7.984,0,14.254,5.041,4.694,9.191,10.825a96.5,96.5,0,0,1,7.408,13.7s-1.116-8.781,0-9.7c.685-.566,2.213,1.83,3.452,4.059.514.921,3.212,10.641,8.186,16.61s12.725,9.222,12.725,9.222h4.906l-3-5.937a140.116,140.116,0,0,0,15.894,8.788,39.721,39.721,0,0,0,11.96,3.373s-12.641-7.464-7.759-7.878,14.288,6.79,27.288,6.221,14.61-3.161,24.71-8.5a50.637,50.637,0,0,0,15.691-12.847s-7.509,10.958-5.9,12.847,5.142,1.463,12.344-5.291,11.22-11.542,16.462-21.726,2.662-18.278,4.5-19.013-.016,17.111,2.865,16.074,6.07-12.312,8.659-20.221.5-11.414,1.7-11.414,7.766,8,5.319,15.561-8.094,19.154-12.013,26.084-3.661,1.636-3.661,1.636v-3.676A88.076,88.076,0,0,1,304.7,793.382c-6.523,7.192-9.012,7.608-14.741,12.073a70.713,70.713,0,0,1-8.174,5.787s4.63-.621-3.925,0-20.662,7.417-28.784,9.062-3.7-2.484-3.7-2.484,2.443-2.611-1.868-2.3-15.376,3.554-15.376,3.554-7.473,1.2-12.3,0a11.948,11.948,0,0,1-7.006-4.808s-4.467,1.651-10.833-1.265-8.386-5.5-14.634-10.4-7.767-8.239-10.356-9.222,0,5.291,0,5.291a39.582,39.582,0,0,1-10.758-10.86c-5.158-7.489-9.872-19.1-9.872-19.1s-.616-6.088-2.5-6.088-5.023,6.088-5.023,6.088,1.687-4.162,0-10.825-4.521-9.923-6.749-15.828S137.779,725.092,139.62,727.434Z" transform="translate(-126.885 -622.702)" fill="#494ffd"/><path d="M159.2,717.572c5.523-.652,0,5.916,0,5.916a51.484,51.484,0,0,0,15.109,5.79,55.112,55.112,0,0,0,16.523,0s-3.856,3.469,0,5,9.1,1.445,15.424,1.124,6.232-2.129,9.875-2.41,4.7,1.286,4.7,1.286a40.464,40.464,0,0,1,18.169-3.11c9.607.823,13.738,4.8,20.26,6.4s5.831,0,5.831,0l-1.326-4.579s9.544,3.977,16.522,4.579a19.642,19.642,0,0,0,11.389-2.169l-2.163-2.41a20.211,20.211,0,0,0,10.955,0c5.764-1.708,9.076-3.357,12.1-6.832s0-7.066,0-7.066,5.512.918,7.349,4.392,0,9.505,0,9.505.369-4.317-2.839-3.715-4.6,4.593-9.991,6.124-7.7-1.875-11.555,0,1.514,5.942-3.858,7.5-11.645-.23-17.629-1.269-6.415.721-11.791,0-2.924-.306-10.071-1.142-8.4-4.373-16.692-4.373-9.322,2.788-15.948,3.331c-3.764.308-5.8.68-6.3-.3-.044-.151-.264.151-.749-.473.173,0,.75-1.206,0-1.1-5.215.721-7.41,4.061-13.972,4.061s-8.231-1.445-12.277-4.061a7.838,7.838,0,0,1-3.9-6.4s-6.756,2.3-12.814,1.824a29.5,29.5,0,0,1-11.419-3.715l-2.958-3.117v5.008s-4.288-1.608-3.275-5.008S153.673,718.224,159.2,717.572Z" transform="translate(-125.456 -623.639)" fill="#0721af"/><path d="M155.181,726.106c-1.183-2.414.595,9.283,3.695,12.336s5.315,3.573,9.822,8.8a78.509,78.509,0,0,1,8.206,12.122s3.555,4.219,5.235,4.925c.507.213,1.725.226.646-2.722-2.114-5.782-9.094-18.808-14.087-24.628-1.266-1.476-1.134-3.482-2.508-4.715C162.487,730.945,156.155,728.093,155.181,726.106Z" transform="translate(-125.153 -622.832)" fill="#4f62cb"/><path d="M271.614,771c.911.952,16.916-21.1,23.948-29.723s4.867-3.81,4.867-3.81.389,4.436,2.18,3.81,3.959-3.081,4.983-6.313c0,0-.082-2.507,0-2.792.936-2.947-.64-4.093-.64-4.093s-7.894.173-15.834,10.573S270.7,770.052,271.614,771Z" transform="translate(-113.739 -622.607)" fill="#4f62cb"/><path d="M185.378,770.88c9.06,7.973,17.183,18.079,34.715,23.505s21.43,2.857,35.411-1.8,20.512-16.827,20.512-16.827l6.664-11.534s-18.792,20.93-38.173,25.468c-6.182,1.448-10.932.764-15.282.492-8.269-.511-13.742-3.177-24.068-7.808a35.47,35.47,0,0,1-5.512-3.6c-10.448-7.158-14.618-17.982-18.89-20.466C175.809,755.437,176.318,762.907,185.378,770.88Z" transform="translate(-122.922 -619.713)" fill="#a48bf8"/><path d="M166.295,731.6c1.954.271,11.557.041,14.662-1.755-.264,1.621,1.963,5.525,4.54,6.917,2.114,1.756,7.38,2.808,11.17,3.169,7.152.682,6.38-2.925,13.858-4.074.927-.143,1.035,2.762,2.189,2.617a51.525,51.525,0,0,1,6.069-.478c2.47-.076,7.255-3.117,11.4-3.117,8.462,0,7.339-1.306,10.673-.484s10.643,4.443,16.122,4.826c1.78.124,7.437.473,9.661-1.43,3.534,3.864,22.154,4.226,22.154,4.226a8.287,8.287,0,0,0,4.442-2.8c-.239-.226-2.383-4.123,1.348-5.225,2.367-1.215,9.376.127,9.7.777.765,1.54-2.429,2.339-5.426,7.7s-1.5,4.595-8.855,14.815-8.32,16.383-22.575,25.382-16.622,11.652-34.442,10.616-22.576-5.021-36.2-14.526c-6.907-4.819-6.91-7.534-10.127-10.929-1.881-2.954-5.2-7.03-8.131-12.589-3.359-6.359-6.007-11.974-8.8-15.931C168.059,736.732,164.78,734.432,166.295,731.6Z" transform="translate(-124.069 -622.435)"/><g transform="translate(60.048)" fill="#fff" stroke="#707070" stroke-width="1"><ellipse cx="28.5" cy="29.5" rx="28.5" ry="29.5" stroke="none"/><ellipse cx="28.5" cy="29.5" rx="28" ry="29" fill="none"/></g><ellipse cx="12" cy="11.5" rx="12" ry="11.5" transform="translate(76.048 22)" fill="#0a0a0a"/><g transform="translate(103.048)" fill="#fff" stroke="#707070" stroke-width="1"><ellipse cx="29" cy="29.5" rx="29" ry="29.5" stroke="none"/><ellipse cx="29" cy="29.5" rx="28.5" ry="29" fill="none"/></g><circle cx="11.5" cy="11.5" r="11.5" transform="translate(118.048 22)" fill="#0a0a0a"/></g><g transform="translate(645 -1749.617)"><g transform="matrix(1, 0, 0, 1, 70.95, 2969.62)" filter="url(#i)"><path d="M458.248,315.418c-.844-1.392-3.793-1.356-3.793-1.356-2.685,3.989-9.138-.248-9.138-.248-4.793,2.144-7.717-4.689-7.717-4.689-6.449-.964-5.453-7.737-5.453-7.737-3.208-.644-2.308-6.445-2.308-6.445s1.78-1.46.9-2.528c-.557-.679-.592-2.628-.543-3.959a44.257,44.257,0,1,0,28.556,26.811C458.53,315.522,458.354,315.593,458.248,315.418Z" transform="translate(-91.47 -245.38)" fill="#d9982f" opacity="0.899"/></g><path d="M462.5,320.746c-.8-1.324-3.607-1.29-3.607-1.29-2.553,3.793-8.69-.236-8.69-.236-4.558,2.039-7.339-4.459-7.339-4.459-6.133-.917-5.186-7.359-5.186-7.359-3.051-.613-2.2-6.13-2.2-6.13s1.693-1.389.86-2.4c-.53-.646-.563-2.5-.516-3.765a42.091,42.091,0,1,0,27.158,25.5C462.77,320.845,462.6,320.912,462.5,320.746Z" transform="translate(-26.842 2719.655)" fill="#ad7113"/><g transform="translate(388.986 3022.287)"><circle cx="2.021" cy="2.021" r="2.021" transform="translate(0.435 0.435)" fill="#5c3c0e" stroke="#533304" stroke-width="1"/><path d="M1.137,0c.429-.022.536.794.536,1.352S1.286,3.181.88,3.181s-1-.987-.86-1.749S.708.022,1.137,0Z" transform="matrix(0.848, 0.53, -0.53, 0.848, 1.686, 0)" fill="#865b1e"/></g><g transform="translate(380.349 3027.984)"><circle cx="3.084" cy="3.084" r="3.084" transform="translate(0.663 0.664)" fill="#5c3c0e" stroke="#533304" stroke-width="1"/><path d="M1.734,0c.655-.033.818,1.211.818,2.063s-.59,2.789-1.209,2.789S-.177,3.347.03,2.184,1.079.034,1.734,0Z" transform="matrix(0.848, 0.53, -0.53, 0.848, 2.571, 0)" fill="#865b1e"/></g><g transform="translate(424.433 3050.038) rotate(121)"><ellipse cx="2.021" cy="2.877" rx="2.021" ry="2.877" transform="translate(0.435 0.435)" fill="#5c3c0e" stroke="#533304" stroke-width="1"/><path d="M1.137,0c.429-.022.536.794.536,1.352S1.286,3.181.88,3.181s-1-.987-.86-1.749S.708.022,1.137,0Z" transform="matrix(0.848, 0.53, -0.53, 0.848, 1.686, 0)" fill="#865b1e"/></g><g transform="translate(376.822 3060.992) rotate(121)"><ellipse cx="3.384" cy="4.001" rx="3.384" ry="4.001" transform="translate(0.063 0.181)" fill="#5c3c0e" stroke="#533304" stroke-width="1"/><path d="M.9,0c.429-.022,1.075.964,1.075,1.523s-.354,2.138-.76,2.138c-.15,0-.756.077-.954-.18A3.128,3.128,0,0,1,.035,1.7C.171.94.473.022.9,0Z" transform="matrix(0.848, 0.53, -0.53, 0.848, 1.946, 0)" fill="#865b1e"/></g><g transform="translate(411.169 3069.963) rotate(42)"><ellipse cx="1.509" cy="1.784" rx="1.509" ry="1.784" transform="translate(0.028 0.081)" fill="#5c3c0e" stroke="#533304" stroke-width="1"/><path d="M.4,0c.191-.01.479.43.479.679s-.158.953-.339.953c-.067,0-.337.035-.425-.08a1.394,1.394,0,0,1-.1-.793C.076.419.211.01.4,0Z" transform="matrix(0.848, 0.53, -0.53, 0.848, 0.867, 0)" fill="#865b1e"/></g><g transform="translate(405.472 3056.732) rotate(42)"><ellipse cx="1.509" cy="1.784" rx="1.509" ry="1.784" transform="translate(0.028 0.081)" fill="#5c3c0e" stroke="#533304" stroke-width="1"/><path d="M.4,0c.191-.01.479.43.479.679s-.158.953-.339.953c-.067,0-.337.035-.425-.08a1.394,1.394,0,0,1-.1-.793C.076.419.211.01.4,0Z" transform="matrix(0.848, 0.53, -0.53, 0.848, 0.867, 0)" fill="#865b1e"/></g><g transform="translate(392.977 3084.847) rotate(42)"><ellipse cx="1.509" cy="1.784" rx="1.509" ry="1.784" transform="translate(0.028 0.081)" fill="#5c3c0e" stroke="#533304" stroke-width="1"/><path d="M.4,0c.191-.01.479.43.479.679s-.158.953-.339.953c-.067,0-.337.035-.425-.08a1.394,1.394,0,0,1-.1-.793C.076.419.211.01.4,0Z" transform="matrix(0.848, 0.53, -0.53, 0.848, 0.867, 0)" fill="#865b1e"/></g><g transform="translate(404.238 3085.132)"><circle cx="2.021" cy="2.021" r="2.021" transform="translate(0.435 0.435)" fill="#5c3c0e" stroke="#533304" stroke-width="1"/><path d="M1.137,0c.429-.022.536.794.536,1.352S1.286,3.181.88,3.181s-1-.987-.86-1.749S.708.022,1.137,0Z" transform="matrix(0.848, 0.53, -0.53, 0.848, 1.686, 0)" fill="#865b1e"/></g><g transform="translate(367.119 3042.317)"><circle cx="2.021" cy="2.021" r="2.021" transform="translate(0.435 0.435)" fill="#5c3c0e" stroke="#533304" stroke-width="1"/><path d="M1.137,0c.429-.022.536.794.536,1.352S1.286,3.181.88,3.181s-1-.987-.86-1.749S.708.022,1.137,0Z" transform="matrix(0.848, 0.53, -0.53, 0.848, 1.686, 0)" fill="#865b1e"/></g><g transform="translate(423.271 3078.718) rotate(-141)"><ellipse cx="3.384" cy="4.001" rx="3.384" ry="4.001" transform="translate(0.063 0.181)" fill="#5c3c0e" stroke="#533304" stroke-width="1"/><path d="M.9,0c.429-.022,1.075.964,1.075,1.523s-.354,2.138-.76,2.138c-.15,0-.756.077-.954-.18A3.128,3.128,0,0,1,.035,1.7C.171.94.473.022.9,0Z" transform="matrix(0.848, 0.53, -0.53, 0.848, 1.946, 0)" fill="#865b1e"/></g><g transform="translate(388.435 3066.021)"><circle cx="3.084" cy="3.084" r="3.084" transform="translate(0.663 0.664)" fill="#5c3c0e" stroke="#533304" stroke-width="1"/><path d="M1.734,0c.655-.033.818,1.211.818,2.063s-.59,2.789-1.209,2.789S-.177,3.347.03,2.184,1.079.034,1.734,0Z" transform="matrix(0.848, 0.53, -0.53, 0.848, 2.571, 0)" fill="#865b1e"/></g><g transform="translate(400.544 3044.538) rotate(121)"><ellipse cx="3.384" cy="4.001" rx="3.384" ry="4.001" transform="translate(0.063 0.181)" fill="#5c3c0e" stroke="#533304" stroke-width="1"/><path d="M.9,0c.429-.022,1.075.964,1.075,1.523s-.354,2.138-.76,2.138c-.15,0-.756.077-.954-.18A3.128,3.128,0,0,1,.035,1.7C.171.94.473.022.9,0Z" transform="matrix(0.848, 0.53, -0.53, 0.848, 1.946, 0)" fill="#865b1e"/></g></g></g></svg>