<svg xmlns="http://www.w3.org/2000/svg" xmlns:xlink="http://www.w3.org/1999/xlink" width="507.297" height="425.104" viewBox="0 0 507.297 425.104"><defs><filter id="a" x="179.497" y="139" width="327.799" height="234.024" filterUnits="userSpaceOnUse"><feOffset dy="3" input="SourceAlpha"/><feGaussianBlur stdDeviation="3" result="b"/><feFlood flood-opacity="0.545"/><feComposite operator="in" in2="b"/><feComposite in="SourceGraphic"/></filter><filter id="c" x="111.087" y="163.275" width="327.8" height="234.024" filterUnits="userSpaceOnUse"><feOffset dy="3" input="SourceAlpha"/><feGaussianBlur stdDeviation="3" result="d"/><feFlood flood-opacity="0.584"/><feComposite operator="in" in2="d"/><feComposite in="SourceGraphic"/></filter><filter id="e" x="44" y="191.08" width="327.799" height="234.024" filterUnits="userSpaceOnUse"><feOffset dy="3" input="SourceAlpha"/><feGaussianBlur stdDeviation="3" result="f"/><feFlood flood-opacity="0.502"/><feComposite operator="in" in2="f"/><feComposite in="SourceGraphic"/></filter><filter id="g" x="0" y="0" width="412" height="146" filterUnits="userSpaceOnUse"><feOffset dy="3" input="SourceAlpha"/><feGaussianBlur stdDeviation="3" result="h"/><feFlood flood-opacity="0.565"/><feComposite operator="in" in2="h"/><feComposite in="SourceGraphic"/></filter></defs><g transform="translate(-1310 -1216)"><g transform="translate(1363 1361)"><g transform="matrix(1, 0, 0, 1, -53, -145)" filter="url(#a)"><path d="M712.339,355.493A6.771,6.771,0,0,1,705.6,362.3H409.275a6.77,6.77,0,0,1-6.735-6.806V153.081a6.77,6.77,0,0,1,6.735-6.806H705.6a6.77,6.77,0,0,1,6.735,6.806h0Z" transform="translate(-214.04 -1.28)" fill="#e6e6e6"/></g><path d="M713.525,356.776a6.581,6.581,0,0,1-6.581,6.581H417.5a6.581,6.581,0,0,1-6.581-6.581V161.086a6.581,6.581,0,0,1,6.581-6.581H706.958a6.581,6.581,0,0,1,6.567,6.581Z" transform="translate(-271.724 -150.873)" fill="#fff"/><path d="M441.026,173.755H713a3.906,3.906,0,0,1,3.906,3.906V360.949A3.906,3.906,0,0,1,713,364.855H441.026a3.906,3.906,0,0,1-3.906-3.906h0V177.661a3.906,3.906,0,0,1,3.906-3.906Z" transform="translate(-286.36 -161.626)" fill="#e6e6e6"/><path d="M448.826,183.715H713.62a3.906,3.906,0,0,1,3.906,3.906V361.128a3.906,3.906,0,0,1-3.906,3.906H448.826a3.906,3.906,0,0,1-3.906-3.906h0V187.621a3.906,3.906,0,0,1,3.906-3.906Z" transform="translate(-290.718 -167.19)" fill="#fff"/><g transform="matrix(1, 0, 0, 1, -53, -145)" filter="url(#c)"><path d="M557.339,410.493A6.77,6.77,0,0,1,550.6,417.3H254.275a6.77,6.77,0,0,1-6.735-6.806h0V208.081a6.77,6.77,0,0,1,6.735-6.806H550.6a6.77,6.77,0,0,1,6.735,6.806h0Z" transform="translate(-127.45 -32)" fill="#e6e6e6"/></g><path d="M558.525,411.776a6.581,6.581,0,0,1-6.581,6.581H262.5a6.581,6.581,0,0,1-6.581-6.581V216.086A6.581,6.581,0,0,1,262.5,209.5H551.958a6.581,6.581,0,0,1,6.567,6.581Z" transform="translate(-185.135 -181.598)" fill="#fff"/><path d="M286.026,228.755H558a3.906,3.906,0,0,1,3.906,3.906V415.949A3.906,3.906,0,0,1,558,419.855H286.026a3.906,3.906,0,0,1-3.906-3.906h0V232.661a3.906,3.906,0,0,1,3.906-3.906h0Z" transform="translate(-199.771 -192.352)" fill="#e6e6e6"/><path d="M293.826,238.715H558.62a3.906,3.906,0,0,1,3.906,3.906V416.128a3.906,3.906,0,0,1-3.906,3.906H293.826a3.906,3.906,0,0,1-3.906-3.906h0V242.621a3.906,3.906,0,0,1,3.906-3.906Z" transform="translate(-204.128 -197.916)" fill="#fff"/><g transform="matrix(1, 0, 0, 1, -53, -145)" filter="url(#e)"><path d="M405.339,473.493A6.77,6.77,0,0,1,398.6,480.3H102.275a6.77,6.77,0,0,1-6.735-6.806V271.081a6.77,6.77,0,0,1,6.735-6.806H398.6a6.77,6.77,0,0,1,6.735,6.806h0Z" transform="translate(-42.54 -67.19)" fill="#e6e6e6"/></g><path d="M406.525,474.776a6.581,6.581,0,0,1-6.581,6.581H110.5a6.581,6.581,0,0,1-6.581-6.581V279.086a6.581,6.581,0,0,1,6.581-6.581H399.958a6.581,6.581,0,0,1,6.567,6.581Z" transform="translate(-100.221 -216.792)" fill="#fff"/><path d="M134.026,291.755H406a3.906,3.906,0,0,1,3.906,3.906V478.949A3.906,3.906,0,0,1,406,482.855H134.026a3.906,3.906,0,0,1-3.906-3.906V295.661a3.906,3.906,0,0,1,3.906-3.906Z" transform="translate(-114.858 -227.546)" fill="#e6e6e6"/><path d="M141.826,301.715H406.62a3.906,3.906,0,0,1,3.906,3.906V479.128a3.906,3.906,0,0,1-3.906,3.906H141.826a3.906,3.906,0,0,1-3.906-3.906V305.621A3.906,3.906,0,0,1,141.826,301.715Z" transform="translate(-119.215 -233.11)" fill="#fff"/><path d="M424.226,365.646V485.7a2.65,2.65,0,0,1-2.648,2.648H295.79a2.65,2.65,0,0,1-2.648-2.648V351.522a2.65,2.65,0,0,1,2.648-2.648h109.9Z" transform="translate(-205.928 -259.455)" fill="#6c63ff"/><path d="M341.48,415.072a1.657,1.657,0,1,0,0,3.314h43.7a1.657,1.657,0,1,0,.054-3.314H341.48Z" transform="translate(-232.006 -296.436)" fill="#fff"/><path d="M341.48,450.291a1.657,1.657,0,1,0,0,3.314h86.508a1.657,1.657,0,1,0,.054-3.314H341.48Z" transform="translate(-232.006 -316.11)" fill="#fff"/><path d="M341.48,485.51a1.657,1.657,0,1,0,0,3.314h86.508a1.657,1.657,0,1,0,.054-3.314H341.48Z" transform="translate(-232.006 -335.785)" fill="#fff"/><path d="M341.48,520.729a1.657,1.657,0,1,0,0,3.314h86.508a1.657,1.657,0,1,0,.054-3.314H341.48Z" transform="translate(-232.006 -355.46)" fill="#fff"/><path d="M341.48,555.948a1.657,1.657,0,1,0,0,3.314h86.508a1.657,1.657,0,1,0,.054-3.314H341.48Z" transform="translate(-232.006 -375.135)" fill="#fff"/><path d="M341.48,591.167a1.657,1.657,0,1,0,0,3.314h86.508a1.657,1.657,0,1,0,.054-3.314H341.48Z" transform="translate(-232.006 -394.809)" fill="#fff"/><path d="M566.679,365.646H549.907a1.765,1.765,0,0,1-1.765-1.765V348.874h0Z" transform="translate(-348.381 -259.455)" fill="#6c63ff"/><path d="M566.679,365.646H549.907a1.765,1.765,0,0,1-1.765-1.765V348.874h0Z" transform="translate(-348.381 -259.455)" opacity="0.2"/></g><g transform="matrix(1, 0, 0, 1, 1310, 1216)" filter="url(#g)"><rect width="394" height="128" transform="translate(9 6)"/></g><text transform="translate(1332 1264)" fill="#fff" font-size="27" font-family="AdobeClean-Regular, Adobe Clean"><tspan x="0" y="0">But it looks just like a regular file</tspan><tspan x="0" y="33">stored on your computer</tspan><tspan x="0" y="66" xml:space="preserve"> or browser.</tspan></text></g></svg>