<svg xmlns="http://www.w3.org/2000/svg" xmlns:xlink="http://www.w3.org/1999/xlink" width="418" height="318" viewBox="0 0 418 318"><defs><filter id="a" x="0" y="0" width="418" height="318" filterUnits="userSpaceOnUse"><feOffset dy="3" input="SourceAlpha"/><feGaussianBlur stdDeviation="3" result="b"/><feFlood flood-opacity="0.745"/><feComposite operator="in" in2="b"/><feComposite in="SourceGraphic"/></filter></defs><g transform="translate(-636 -450)"><g transform="matrix(1, 0, 0, 1, 636, 450)" filter="url(#a)"><g transform="translate(9 6)" fill="#f8f8f8"><path d="M 364.304443359375 298.5 L 35.69553375244141 298.5 C 16.84003448486328 298.5 1.499984741210938 278.086669921875 1.499984741210938 252.9953918457031 L 1.499984741210938 47.00463485717773 C 1.499984741210938 21.91328430175781 16.84003448486328 1.499984741210938 35.69553375244141 1.499984741210938 L 364.304443359375 1.499984741210938 C 383.1599426269531 1.499984741210938 398.5 21.91328430175781 398.5 47.00463485717773 L 398.5 252.9953918457031 C 398.5 278.086669921875 383.1599426269531 298.5 364.304443359375 298.5 Z" stroke="none"/><path d="M 35.69552612304688 2.999969482421875 C 31.39361572265625 2.999969482421875 27.21005249023438 4.115234375 23.260986328125 6.314727783203125 C 19.37481689453125 8.47918701171875 15.87008666992188 11.5970458984375 12.84414672851562 15.5816650390625 C 9.771759033203125 19.62741088867188 7.355133056640625 24.35250854492188 5.661407470703125 29.625732421875 C 3.895416259765625 35.123779296875 2.999969482421875 40.97088623046875 2.999969482421875 47.00462341308594 L 2.999969482421875 252.995361328125 C 2.999969482421875 259.0290832519531 3.895416259765625 264.8761901855469 5.661407470703125 270.3742370605469 C 7.355133056640625 275.6474609375 9.771759033203125 280.37255859375 12.84414672851562 284.4183044433594 C 15.87008666992188 288.4029235839844 19.37481689453125 291.5207824707031 23.260986328125 293.6852416992188 C 27.21005249023438 295.8847351074219 31.39361572265625 297 35.69552612304688 297 L 364.3044128417969 297 C 368.6062927246094 297 372.7898864746094 295.8847351074219 376.7389831542969 293.6852416992188 C 380.6251525878906 291.5207824707031 384.1298828125 288.4029235839844 387.1558227539062 284.4183044433594 C 390.2282104492188 280.37255859375 392.6448364257812 275.6474609375 394.3385620117188 270.3742370605469 C 396.1045532226562 264.8761901855469 397 259.0290832519531 397 252.995361328125 L 397 47.00462341308594 C 397 40.97088623046875 396.1045532226562 35.123779296875 394.3385620117188 29.625732421875 C 392.6448364257812 24.35250854492188 390.2282104492188 19.62741088867188 387.1558227539062 15.5816650390625 C 384.1298828125 11.5970458984375 380.6251525878906 8.47918701171875 376.7389831542969 6.314727783203125 C 372.7898864746094 4.115234375 368.6062927246094 2.999969482421875 364.3044128417969 2.999969482421875 L 35.69552612304688 2.999969482421875 M 35.69552612304688 -3.0517578125e-05 L 364.3044128417969 -3.0517578125e-05 C 384.0185241699219 -3.0517578125e-05 400 21.044677734375 400 47.00462341308594 L 400 252.995361328125 C 400 278.9552917480469 384.0185241699219 300 364.3044128417969 300 L 35.69552612304688 300 C 15.9814453125 300 -3.0517578125e-05 278.9552917480469 -3.0517578125e-05 252.995361328125 L -3.0517578125e-05 47.00462341308594 C -3.0517578125e-05 21.044677734375 15.9814453125 -3.0517578125e-05 35.69552612304688 -3.0517578125e-05 Z" stroke="none" fill="#e6e6e6"/></g></g><line x2="398.937" y2="1.531" transform="translate(645.574 494.488)" fill="none" stroke="#e6e6e6" stroke-width="3"/><ellipse cx="6" cy="5.5" rx="6" ry="5.5" transform="translate(674 470.847)" fill="#df3636"/><ellipse cx="6" cy="5.5" rx="6" ry="5.5" transform="translate(692 470.847)" fill="#ffbc50"/><ellipse cx="6" cy="5.5" rx="6" ry="5.5" transform="translate(709 470.847)" fill="#8fd66a"/><g transform="translate(759 531.613)" fill="#fff" stroke="#e6e6e6" stroke-width="1"><rect width="172.933" height="148.914" rx="17" stroke="none"/><rect x="0.5" y="0.5" width="171.933" height="147.914" rx="16.5" fill="none"/></g><g transform="translate(779.171 640.275)" fill="rgba(84,199,0,0.44)" stroke="#e6e6e6" stroke-width="1"><rect width="56.443" height="19.215" rx="9.607" stroke="none"/><rect x="0.5" y="0.5" width="55.443" height="18.215" rx="9.107" fill="none"/></g><text transform="translate(785.84 593.646)" font-size="19" font-family="AdobeClean-Regular, Adobe Clean"><tspan x="0" y="0">Accept Cookies?</tspan></text><text transform="translate(799.406 653.564)" font-size="11" font-family="AdobeClean-Regular, Adobe Clean"><tspan x="0" y="0">Yes</tspan></text><g transform="translate(855.394 640.275)" fill="rgba(255,98,98,0.69)" stroke="#e6e6e6" stroke-width="1"><rect width="54.042" height="19.215" rx="9.607" stroke="none"/><rect x="0.5" y="0.5" width="53.042" height="18.215" rx="9.107" fill="none"/></g><text transform="translate(875.807 653.564)" fill="#0f0f0f" font-size="11" font-family="AdobeClean-Regular, Adobe Clean"><tspan x="0" y="0">No</tspan></text><line y1="0.754" x2="11.208" transform="matrix(0.695, 0.719, -0.719, 0.695, 907.675, 550.846)" fill="none" stroke="#707070" stroke-width="1"/><line x1="0.941" y2="11.238" transform="matrix(0.695, 0.719, -0.719, 0.695, 915.009, 550.901)" fill="none" stroke="#707070" stroke-width="1"/><path d="M877.129,448.586c-.472-1.8,0-7.649,0-7.649s4.223,3.76,5.107,5.414-1.573.021-1.573,1.2,1.573,2.452,1.573,3.523-.768,1.5-1.573.762-.763-2.888-1.647-3.7S877.6,450.386,877.129,448.586Z" transform="translate(-29.292 228.185)" fill="#fff" stroke="#000" stroke-width="0.5"/></g></svg>