<svg xmlns="http://www.w3.org/2000/svg" xmlns:xlink="http://www.w3.org/1999/xlink" width="401" height="304.903" viewBox="0 0 401 304.903"><defs><style>.a{fill:#efefef;opacity:0.999;}.b{fill:#eb3b33;}.b,.n{stroke:#000;}.c{fill:#ee4035;opacity:0.995;}.d,.n{fill:#fff;}.d{stroke:#6f6f6f;stroke-width:2px;}.e{fill:#0a0a0a;}.f{fill:#f4856a;}.g{fill:#f79727;stroke:#de8b2f;stroke-width:0.5px;}.h{fill:#e11735;}.i{fill:#af0736;}.j{fill:#e01634;}.k{fill:#f58e1d;}.l{fill:#e6ae64;}.m{fill:#fffcfc;}.o{fill:#0f0f0f;font-size:27px;font-family:AdobeClean-Regular, Adobe Clean;}.p{stroke:none;}.q{fill:none;}.r{filter:url(#c);}.s{filter:url(#a);}</style><filter id="a" x="0" y="25.903" width="328" height="216" filterUnits="userSpaceOnUse"><feOffset dy="3" input="SourceAlpha"/><feGaussianBlur stdDeviation="3" result="b"/><feFlood flood-opacity="0.502"/><feComposite operator="in" in2="b"/><feComposite in="SourceGraphic"/></filter><filter id="c" x="71" y="184.903" width="330" height="120" filterUnits="userSpaceOnUse"><feOffset dy="3" input="SourceAlpha"/><feGaussianBlur stdDeviation="3" result="d"/><feFlood flood-opacity="0.502"/><feComposite operator="in" in2="d"/><feComposite in="SourceGraphic"/></filter></defs><g transform="translate(-125 -583.097)"><g class="s" transform="matrix(1, 0, 0, 1, 125, 583.1)"><rect class="a" width="310" height="198" transform="translate(9 31.9)"/></g><path class="b" d="M5.078,116.236c.635-4.764,3.711-5.167,7.676-13.618s.3-10.4,2.957-19.648a78.976,78.976,0,0,1,7.661-17.35s2.262,3.5,3.351,1.911,1.8-9.242,1.8-9.242a29.4,29.4,0,0,1-5.74-7.785c-1.541-3.066-1.9-7.77-3.452-9.478-3.7-4.058-7.058-3.933-9.22-6.369s6.457,2.674,4.944.926c-.752-1.337-2.645-.5-4.574-1.9-2.134-1.551-3.938-4.537-4.079-6.43-.245-3.292,3.59-3.231,7.15-4.663,1.862-.749-2.764-1.693-1.789-2.308.515-.341,4.9-1.277,7-.744,4.414,1.119,8.325,8.543,10.588,7.214s1.186-2.68,2.6-8.048S32.594,7.368,33.6,5.769,35.618,11,35.618,11s3.97-9.023,8.628-9.179,10.589,3.506,9.5,7.058-2.533,4.56-3.795,8.711a42.289,42.289,0,0,0-1.566,7.919s8.835-6.579,11.919-7.5.124,3.217.124,3.217S67.9,19.917,70.4,22.662c1.475,1.62,1.263,5.462,1.332,7.243.043,1.1-4.094,4.55-5.091,3.336-.684-.838,2.89-4.239,1.844-3.468-1.6,1.186-3.279,5.814-4.989,7.053a40,40,0,0,1-6.543,3.891s9.914-2.02,13.669,1.137,3.719,4.871,1.906,8.651a9.815,9.815,0,0,1-8.273,5.945c-2.49.276-4.646-.672-6.7-.272-1.8.347-2.9,4.846-3.759,6.814C52.139,66.746,48,65.624,48,65.624a28.659,28.659,0,0,1,.332,8.572,14.537,14.537,0,0,1-2.841,6.345s5.473-.922,4.814,1.647-6.139,6.236-6.139,6.236,2.359,6.544.435,11.241-9.438,9.938-9.438,9.938,1.152,4.931-1.014,8.771-7.65,6.592-7.65,6.592l3.429,2.247a34.1,34.1,0,0,0-8.551,3.383c-3.35,2.066-5.355,5.149-7.4,4.043C9.973,132.47,2.645,121.3,5.078,116.236Z" transform="translate(392.513 637.396) rotate(44)"/><path d="M.047.167C.483-.854,2.973,3.049,5.513,5.5S9.3,8.032,10.21,9.965s0,3.666-1.063,3.265S7.3,9.273,5.956,8.361,5.247,11.63,3.77,9.582-.389,1.187.047.167Z" transform="translate(388.866 687.374) rotate(44)"/><path class="c" d="M136.746,687.144c1.654-2.547,4.24.253,8.891-3.009s5.793-8.551,13.727-14.511,14.717-8.563,21.4-6.581c2.388.937,5.1,6.19,8.823,8.328,6.212,3.566,14.188,3.863,14.188,3.863s39.69,3.048,55.764,0,9.741-9.142,18.23-11.789,23.728,9.215,25.686,14.052,10.793,3.777,12.891,5.652-1.825,5.094-4.811,6.656c-1,.523,1.734.339,5.2,1.995a26.962,26.962,0,0,1,6.2,4.79c3.218,2.792,4.454,8.322,4.376,12.641s-4.686,4.636-4.686,4.636a25.981,25.981,0,0,1,3.671,7.352c.849,3.457-.418,5.41,0,7.226s-.195,2.794.187,4.8c.543,2.714,2.558,3.251,1.594,5.557s-3.192,3.821-6.043,4.455-5.361-1.917-5.361-1.917a31.652,31.652,0,0,1,1.1,7.4,42.076,42.076,0,0,1-.544,9.978c-1.741,8.087-2.417,10.558-6.967,15.662-1.638,1.837-3.429,3.815-5.392,4.754a7.919,7.919,0,0,1-5.838,0s.245,5.592-5.717,11.107c-2.271,2.1-5.243,5.034-8.568,6.971-4.7,2.74-7.468,2.345-11.053,5.53s-1.567,8.353-3.375,8.329-6.441-4.772-6.441-4.772a27.24,27.24,0,0,1-10.105,7.669c-6.138,2.507-9.063,2.344-14.448,2.359s-6.317-.027-7.462-2.012,2.883-5.931,2.883-5.931a26.191,26.191,0,0,0-3.683,1.973c-2.24,1.4-2.18,3.042-5.275,3.61-4.312.792-9.053-.547-13.437-.353-3.494.155-2.64,1.957-4.32,1.038s-3.326-2.765-2.4-4.713a19.722,19.722,0,0,1-13.515,0c-6.634-2.532-7.373-3.6-11.866-7.166a21.835,21.835,0,0,1-6.105-7.1,2.609,2.609,0,0,1-3.344,2.116c-2.795-.768-2.8-.852-7.836-5.189a58.672,58.672,0,0,1-12.21-16.281,27.114,27.114,0,0,1-2.349-10.791s-2.723,1.7-5,.766-3.621-1-4.724-4.23c.111-1.2,2.014-1.315,1.991-3.963s-3.076-6.856-3.076-6.856-2.495-3.4-5.314-7.719-2.622-10.561-2.622-10.561a30.62,30.62,0,0,1,.486-6.843,11.759,11.759,0,0,1,2.182-4.631s-3.386-.231-4.271-2.6.732-6.869.732-6.869a34.465,34.465,0,0,1,4.827-10.345,30.612,30.612,0,0,1,8.288-7.242,16.127,16.127,0,0,1-4.9-3.134C135.918,690.2,135.263,689.427,136.746,687.144Z" transform="translate(13 -38)"/><path class="d" d="M177.886,648.266c-.04-2.009.988-12.935,8.321-19.695s11.85-6.966,15.472-7.364,12.608.421,17.893,4.26a30.043,30.043,0,0,1,8.79,11.113,40.831,40.831,0,0,1,.906,4.665l2.293-4.665s3.366-7.617,10.086-11.113,15.9-2.261,17.113-2.057A24.536,24.536,0,0,1,272.8,630.87c5.388,6.057,6.716,15.957,6.716,15.957a25.09,25.09,0,0,1-3.112,14.294,35.9,35.9,0,0,1-12.132,12.413c-4.548,2.842-40.636,3.289-65.455-.738-10.243-1.662-16.433-9.971-17.445-11.675A25.069,25.069,0,0,1,177.886,648.266Z" transform="translate(13 -37)"/><circle class="e" cx="10.5" cy="10.5" r="10.5" transform="translate(205 600)"/><circle class="e" cx="10.5" cy="10.5" r="10.5" transform="translate(256 603)"/><path class="f" d="M139.367,688.585c1.776-1.365,4.949,1.45,11.646-2.891s8.016-9.573,15.144-14.473,7.209-4.764,9.829-5.234,8.748.7,7.747,1.656-4,.206-8.211,2.279-8.83,4.815-8.169,5.808,6.6-1.837,10.812-1.837,6.017,1.837,6.017,1.837-6.57.45-9.882,1.146-3.366,1.638-3.366,1.638,11.777-.862,11.512,0-7.045.736-12.57,3.449a33.8,33.8,0,0,0-9.533,7.4,65.046,65.046,0,0,0,7.69-.778,28.4,28.4,0,0,0,5.782-1.682s-.244,1.876-3.336,3.689-4.848.218-9.032,3.56-8.381,7.355-7.7,9.807,10.413,0,10.413,0a44.34,44.34,0,0,0-9.694,4.671c-4.037,2.8-4.186,3.32-6.454,6.547a15.181,15.181,0,0,0-2.617,6.361,10.018,10.018,0,0,1-.466-6.361c.905-3.551,2.565-3.974,4.088-7.844s4.849-8.476,2-7.634-5.628,2.539-9.744,6.948-6.772,10.882-7.028,11.017-3.043,1.051-1.363-3.358a54.586,54.586,0,0,1,8.391-14.606,40.11,40.11,0,0,1,9.744-9.108s-.226-1.369-2-1.228-2.692,1.987-5.1,1.793S137.591,689.951,139.367,688.585Z" transform="translate(13 -38)"/><path class="g" d="M201.975,679.453c-1.961,6.557-1.8,24.949,4.25,30.334,2.491,2.219,5.826,5.581,10.174,7.725,5.584,2.756,12.8,2.992,17.716,2.126a30.773,30.773,0,0,0,16.066-8.325,31.715,31.715,0,0,0,6.231-10.637,29.519,29.519,0,0,0,1.714-9.48c.108-5.485-1.076-12.754-2.274-15.087-2.158-4.2-12.024-19.241-26.78-19.19S203.936,672.9,201.975,679.453Z" transform="translate(13 -38)"/><path class="f" d="M272.234,670.71s1.257-6.1,6.57-4.9,5.875,4.605,14.685,9.7c3.612,2.09,5.876,6.666,8.47,7.977,3.075,1.554,8.619,2.163,8.619,2.163s-6.722-1.074-4.486,2.906,8.7,6.77,12.583,12.112,2.943,9.257,2.943,9.257-2.8-.343-6.062-4.386-5.534-7.577-8.8-10.529-4.251-1.28-4.251-1.28,5.206,6.888,7.223,10.271.845,3.26.845,3.26,6.072,6.117,8.1,10.448,0,6.875,0,6.875a17.791,17.791,0,0,0-4.008-7.7c-3.34-3.882-5.6-5.2-9.353-7.827s-5.663-2.682-5.663-2.682h8.169s-4.793-6.27-10.126-9.921a32.077,32.077,0,0,0-11.2-4.684l9.7-1.355-9.059-3.613,8.5-.594s-4.144-2.45-7.578-4.707-2.782-3.009-6.158-4.322a18.378,18.378,0,0,0-7.348-.928l12.587-.743s-2.46-3.6-6.049-4.8-8.308,0-8.308,0Z" transform="translate(13 -38)"/><path class="h" d="M139.4,727.405c1.677,2.133,3.356,14.761,3.356,14.761s3.295,8.2,5.986,8.2,4.778-8.2,4.778-8.2-2.093,7.273,0,12.985,4.592,4.276,8.372,9.861a87.9,87.9,0,0,1,6.748,12.479s-1.017-8,0-8.839c.624-.516,2.016,1.667,3.145,3.7.469.839,2.926,9.693,7.457,15.131s11.592,8.4,11.592,8.4H195.3l-2.73-5.408a127.635,127.635,0,0,0,14.478,8.005,36.184,36.184,0,0,0,10.9,3.072s-11.515-6.8-7.068-7.177,13.016,6.186,24.858,5.667,13.309-2.879,22.51-7.74a46.127,46.127,0,0,0,14.293-11.7s-6.84,9.982-5.372,11.7,4.684,1.333,11.245-4.82a62.6,62.6,0,0,0,15-19.792c4.775-9.278,2.425-16.65,4.1-17.319s-.014,15.587,2.61,14.643,5.53-11.216,7.888-18.42.455-10.4,1.545-10.4,7.074,7.29,4.846,14.175-7.373,17.448-10.943,23.761-3.335,1.491-3.335,1.491v-3.348a80.236,80.236,0,0,1-10.34,15.208c-5.942,6.551-8.21,6.93-13.428,11a64.418,64.418,0,0,1-7.446,5.272s4.217-.566-3.576,0S246.5,810.507,239.106,812s-3.374-2.263-3.374-2.263,2.225-2.378-1.7-2.092-14.007,3.238-14.007,3.238-6.808,1.095-11.2,0a10.884,10.884,0,0,1-6.382-4.38s-4.069,1.5-9.869-1.152-7.639-5.006-13.331-9.475-7.075-7.505-9.434-8.4,0,4.82,0,4.82a36.058,36.058,0,0,1-9.8-9.893c-4.7-6.822-8.993-17.4-8.993-17.4s-.561-5.546-2.274-5.546-4.576,5.546-4.576,5.546,1.537-3.791,0-9.861-4.119-9.039-6.148-14.418S137.718,725.272,139.4,727.405Z" transform="translate(13 -38)"/><path class="i" d="M158.53,717.568c5.031-.594,0,5.389,0,5.389a46.9,46.9,0,0,0,13.764,5.275,50.2,50.2,0,0,0,15.051,0s-3.513,3.16,0,4.555,8.289,1.317,14.05,1.024,5.677-1.939,9-2.2,4.279,1.171,4.279,1.171a36.86,36.86,0,0,1,16.551-2.833c8.752.75,12.514,4.375,18.456,5.833s5.311,0,5.311,0l-1.208-4.171s8.694,3.622,15.05,4.171a17.893,17.893,0,0,0,10.375-1.976l-1.971-2.2a18.411,18.411,0,0,0,9.979,0c5.251-1.556,8.268-3.058,11.024-6.223s0-6.437,0-6.437,5.021.836,6.695,4,0,8.659,0,8.659.336-3.933-2.586-3.384-4.194,4.184-9.1,5.579-7.016-1.708-10.526,0,1.379,5.413-3.515,6.832-10.608-.21-16.059-1.156-5.844.657-10.741,0-2.663-.279-9.175-1.041-7.654-3.983-15.206-3.983S219.534,737,213.5,737.5c-3.429.281-5.284.619-5.741-.274-.04-.137-.241.138-.682-.431.157,0,.683-1.1,0-1-4.751.657-6.75,3.7-12.728,3.7s-7.5-1.317-11.183-3.7a7.139,7.139,0,0,1-3.557-5.833,34.225,34.225,0,0,1-11.673,1.661,26.869,26.869,0,0,1-10.4-3.384l-2.695-2.839v4.562s-3.906-1.465-2.983-4.562S153.5,718.161,158.53,717.568Z" transform="translate(13 -38)"/><path class="h" d="M155.148,726.077c-1.078-2.2.542,8.456,3.366,11.238s4.841,3.255,8.947,8.02a71.516,71.516,0,0,1,7.475,11.043s3.238,3.843,4.769,4.486c.462.194,1.571.206.588-2.479-1.926-5.267-8.284-17.133-12.832-22.434-1.153-1.344-1.033-3.171-2.285-4.3C161.8,730.485,156.036,727.887,155.148,726.077Z" transform="translate(13 -38)"/><path class="h" d="M271.61,767.182c.83.868,15.41-19.223,21.816-27.076s4.433-3.47,4.433-3.47.354,4.041,1.986,3.47,3.606-2.807,4.539-5.751c0,0-.075-2.284,0-2.543.853-2.685-.583-3.728-.583-3.728s-7.191.157-14.424,9.631S270.78,766.315,271.61,767.182Z" transform="translate(13 -38)"/><path class="f" d="M184.688,769.7c8.253,7.263,15.653,16.469,31.623,21.412s19.522,2.6,32.257-1.639,18.685-15.328,18.685-15.328l6.07-10.507s-17.118,19.066-34.773,23.2c-5.632,1.319-9.958.7-13.921.449-7.533-.466-12.518-2.894-21.925-7.113a32.315,32.315,0,0,1-5.021-3.281c-9.518-6.521-13.317-16.381-17.208-18.643C175.971,755.637,176.435,762.442,184.688,769.7Z" transform="translate(13 -38)"/><path class="j" d="M202.862,674.4a33.871,33.871,0,0,0-4.263,10.573c-.809,3.692-.107,10.474,1.809,15.077,4.778,11.479,9.186,15.57,20.491,22.044s23.812-2.788,23.812-2.788,10.737-7.367,13.986-17.943c1.556-5.066,2.542-12.811,1.552-17.776a21.9,21.9,0,0,0-3.57-8.206s.173,1.091.8,3.994a51.9,51.9,0,0,1,.571,10.719,39.1,39.1,0,0,1-5.521,17.025c-1.943,3.049-11.095,10.686-20.479,11.213s-18.139-3.862-19.431-4.63-8.94-6.927-10.449-13.151-1.5-9.285-1.327-15.823A27.143,27.143,0,0,1,202.862,674.4Z" transform="translate(13 -36)"/><path class="k" d="M204.388,687.447c.72,5.577,12.275,16.367,16.766,18.034s15.677-1.437,24.026-6.49,7.378-15.336,9.4-14.807.069,13.866-1.308,16.922-10.65,12.889-15.12,14.776-14.474,2.1-19.693,0-10.311-7.781-12-10.4a28.785,28.785,0,0,1-4.116-10.848C201.52,689.924,203.668,681.87,204.388,687.447Z" transform="translate(13 -38)"/><path class="l" d="M212.061,670.855c1.222-.191,8.41-5.057,14-5.954s15.263,3.29,16.339,2.515-5.471-5.543-8.65-7.1-8.475-1.318-10.068-.773-7.7,3.437-9.1,5.357S210.839,671.046,212.061,670.855Z" transform="translate(13 -38)"/><path d="M166.26,731.441c1.78.247,10.528.037,13.357-1.6-.241,1.477,1.788,5.033,4.136,6.3,1.925,1.6,6.722,2.558,10.175,2.887,6.515.622,5.812-2.664,12.624-3.712.845-.13.943,2.516,1.994,2.384a46.973,46.973,0,0,1,5.529-.435c2.25-.069,6.609-2.839,10.384-2.839,7.708,0,6.686-1.19,9.722-.441s9.7,4.048,14.686,4.4c1.622.113,6.775.43,8.8-1.3,3.22,3.52,20.181,3.849,20.181,3.849a7.549,7.549,0,0,0,4.046-2.547c-.217-.206-2.171-3.756,1.228-4.759,2.156-1.107,8.541.115,8.835.707.7,1.4-2.213,2.131-4.943,7.01s-1.371,4.186-8.066,13.5-7.579,14.924-20.564,23.122-15.142,10.614-31.375,9.671-20.565-4.574-32.975-13.232c-6.292-4.39-6.295-6.863-9.225-9.956-1.713-2.691-4.733-6.4-7.407-11.468-3.059-5.793-5.472-10.907-8.018-14.513C167.867,736.118,164.88,734.023,166.26,731.441Z" transform="translate(13 -38)"/><circle class="m" cx="3" cy="3" r="3" transform="translate(265 613)"/><circle class="m" cx="3" cy="3" r="3" transform="translate(217 610)"/><g transform="translate(-107 341)"><g class="r" transform="matrix(1, 0, 0, 1, 232, 242.1)"><g class="n" transform="translate(80 190.9)"><rect class="p" width="312" height="102" rx="8"/><rect class="q" x="0.5" y="0.5" width="311" height="101" rx="7.5"/></g></g><text class="o" transform="translate(341 463)"><tspan x="0" y="0" xml:space="preserve">Huh..?       Cookies?</tspan><tspan x="0" y="33">Cookie monster do you</tspan><tspan x="0" y="66">know what it means? </tspan></text></g><path class="f" d="M1116.262,365.538c.43,1.547,2.746.118,9.953-2.929s12.721-2.156,19.435-6.163a20.191,20.191,0,0,0,7.464-7.232c.709-1.07.75-2.173,3.5-4.1,7.506-5.271,11.534-6.069,19.358-9.179s9.152,6.523,14.208,2.913,1.239-10.333,2.743-17.354,4.526-10.731,3.272-10.731-4.581,6.294-8.286,10.731-.528,3.412-4.161,5.741-1.877.55-7.776,2.767-6.188,1.782-13.67,5.934-10.85,7.715-17.844,12.112-8.924,2.044-14.653,6.915S1115.832,363.991,1116.262,365.538Z" transform="translate(-791 376)"/></g></svg>